<svg width="84" height="84" viewBox="0 0 84 84" fill="none" xmlns="http://www.w3.org/2000/svg">
  <g filter="url(#filter0_d_9075_32419)">
    <rect width="80" height="80" rx="16" fill="#FFF9F9" shape-rendering="crispEdges" />
    <circle cx="31" cy="34" r="10" fill="#F9D3D1" />
    <path
      d="M38.5434 21.4042C41.6551 21.1585 44.8301 21.7016 47.6719 22.9967C52.3028 25.0756 56.0017 29.1243 57.6383 33.9301C58.9618 37.7439 58.9901 41.9908 57.7216 45.8221C56.6871 48.9771 54.784 51.8397 52.2845 54.0244C49.9549 56.075 47.1056 57.5325 44.0747 58.2055C40.1892 59.0775 36.0239 58.6686 32.3925 57.0278C30.1412 56.0208 28.094 54.5608 26.4082 52.7609C24.2135 50.4338 22.6319 47.5328 21.8765 44.4245C21.1777 41.5593 21.1693 38.5276 21.8565 35.66C23.0084 30.7551 26.2641 26.4007 30.6226 23.8821C33.0297 22.4703 35.7607 21.6166 38.5434 21.4042ZM36.2463 25.921C35.356 26.8813 34.673 28.0149 34.1158 29.1951C33.5511 30.4178 33.0997 31.6946 32.7865 33.0047C34.7321 33.3154 36.6977 33.4911 38.6675 33.5494C38.6667 30.4461 38.6692 27.3436 38.6659 24.2402C37.7264 24.5725 36.921 25.1989 36.2463 25.921ZM41.3344 24.241C41.3303 27.3436 41.3344 30.4461 41.3328 33.5494C43.3051 33.487 45.2749 33.3212 47.2222 32.9989C46.809 31.3989 46.2527 29.8281 45.4681 28.3697C44.935 27.3885 44.2995 26.4515 43.5033 25.6636C42.8845 25.0523 42.1607 24.5301 41.3344 24.241ZM26.6489 31.219C27.7758 31.7429 28.9594 32.1302 30.1604 32.4425C30.7659 30.0138 31.7004 27.6434 33.1205 25.5712C30.5027 26.8163 28.2414 28.797 26.6489 31.219ZM46.8765 25.5603C48.2974 27.6384 49.2253 30.0146 49.8416 32.445C51.0393 32.1352 52.2187 31.7471 53.3439 31.229C51.7731 28.7878 49.4893 26.8188 46.8765 25.5603ZM25.3688 33.5636C24.7599 34.952 24.3393 36.4229 24.1461 37.9271C23.7463 40.9189 24.2302 44.018 25.5154 46.7483C26.8247 46.0328 28.2356 45.5197 29.6706 45.12C29.1468 41.7951 29.1484 38.3927 29.6382 35.0645C28.1756 34.688 26.7305 34.2224 25.3688 33.5636ZM50.368 35.0703C50.8394 38.2811 50.8502 41.5577 50.3955 44.771C51.883 45.1175 53.3556 45.5481 54.759 46.1561C55.5111 44.3379 55.9359 42.3839 55.9825 40.4158C56.0483 38.0687 55.5785 35.7133 54.6382 33.5636C53.2773 34.2241 51.833 34.6997 50.368 35.0703ZM32.2576 35.6025C31.8187 38.5518 31.8303 41.5652 32.2776 44.5128C34.3856 44.1138 36.5245 43.8948 38.6667 43.8048C38.6659 41.2745 38.6725 38.7433 38.6634 36.2122C36.5178 36.1581 34.3748 35.9565 32.2576 35.6025ZM41.3369 36.2122C41.3278 38.7317 41.3353 41.2512 41.3336 43.7707C43.4841 43.8007 45.6338 43.9572 47.7627 44.2712C48.1742 41.4028 48.1625 38.4768 47.7427 35.61C45.6255 35.964 43.4825 36.1589 41.3369 36.2122ZM41.3336 46.4368C41.3336 49.5443 41.3311 52.6518 41.3344 55.7585C42.7495 55.2537 43.8373 54.1268 44.6802 52.9208C45.9237 51.1034 46.7174 49.0129 47.2438 46.8857C45.2865 46.6017 43.3101 46.4726 41.3336 46.4368ZM32.8123 47.1314C33.2154 48.6681 33.756 50.1748 34.5047 51.5782C35.0228 52.5435 35.6408 53.4647 36.4104 54.2493C37.0476 54.8998 37.8022 55.4528 38.6659 55.7593C38.67 52.6659 38.6667 49.5718 38.6667 46.4776C36.7036 46.56 34.7438 46.7666 32.8123 47.1314ZM46.8773 54.4325C49.5909 53.1432 51.9172 51.0618 53.5188 48.5215C52.3469 48.0309 51.1242 47.6736 49.8899 47.3813C49.2727 49.8716 48.3324 52.307 46.8773 54.4325ZM26.8405 49.0512C28.4022 51.3633 30.611 53.2257 33.123 54.4333C31.7387 52.4127 30.8192 50.109 30.207 47.7469C29.0476 48.0767 27.9099 48.4915 26.8405 49.0512Z"
      fill="#CC0D00" />
  </g>
  <defs>
    <filter id="filter0_d_9075_32419" x="0" y="0" width="84" height="84"
      filterUnits="userSpaceOnUse" color-interpolation-filters="sRGB">
      <feFlood flood-opacity="0" result="BackgroundImageFix" />
      <feColorMatrix in="SourceAlpha" type="matrix"
        values="0 0 0 0 0 0 0 0 0 0 0 0 0 0 0 0 0 0 127 0" result="hardAlpha" />
      <feOffset dx="4" dy="4" />
      <feComposite in2="hardAlpha" operator="out" />
      <feColorMatrix type="matrix"
        values="0 0 0 0 0.976471 0 0 0 0 0.827451 0 0 0 0 0.819608 0 0 0 0.3 0" />
      <feBlend mode="normal" in2="BackgroundImageFix" result="effect1_dropShadow_9075_32419" />
      <feBlend mode="normal" in="SourceGraphic" in2="effect1_dropShadow_9075_32419" result="shape" />
    </filter>
  </defs>
</svg>