<svg width="84" height="85" viewBox="0 0 84 85" fill="none" xmlns="http://www.w3.org/2000/svg">
<g filter="url(#filter0_d_6858_56)">
<rect y="0.722595" width="80" height="80" rx="16" fill="#EFF7FB" shape-rendering="crispEdges"/>
<circle cx="31" cy="34.7226" r="10" fill="#A5DDF8"/>
<path d="M28.9035 21.6138H51.0958C51.7847 21.6735 52.3886 22.264 52.42 22.9626C52.4409 23.5837 52.4185 24.2062 52.4297 24.8287C53.7359 24.8295 55.0429 24.8265 56.3499 24.8302C57.2143 24.8317 58.0578 25.2729 58.5639 25.9715C58.8863 26.4022 59.0632 26.9292 59.1088 27.4629V41.8908C59.0498 42.1655 58.7997 42.3954 58.5079 42.3648C58.2101 42.3513 57.969 42.0692 57.9913 41.7736C57.9861 37.2681 57.9906 32.7633 57.9891 28.2579C57.9816 27.8302 58.0354 27.3793 57.857 26.9762C57.6129 26.3798 56.9993 25.9544 56.3529 25.9499C55.0444 25.9454 53.7359 25.9499 52.4282 25.9484C52.4267 26.3209 52.4267 26.6941 52.4282 27.0673C53.6359 27.0718 54.8444 27.0606 56.0521 27.0725C56.5082 27.0763 56.8889 27.5017 56.8672 27.9526C56.8717 34.3749 56.8687 40.7972 56.8687 47.2188C56.9105 47.7167 56.4731 48.1773 55.9707 48.1459C45.4721 48.1496 34.9728 48.1444 24.4734 48.1481C24.1591 48.1399 23.8113 48.1922 23.5329 48.013C23.2627 47.8473 23.1156 47.5301 23.1313 47.2181C23.1291 40.9465 23.132 34.675 23.1298 28.4027C23.1388 28.0959 23.0843 27.7585 23.2552 27.4831C23.4105 27.2173 23.7157 27.0576 24.0225 27.0688C25.2056 27.0643 26.3895 27.0718 27.5726 27.0651C27.5726 26.6933 27.5718 26.3216 27.5741 25.9506C26.2656 25.9469 24.9563 25.9469 23.6486 25.9499C23.0007 25.9529 22.3863 26.3791 22.1423 26.977C21.9721 27.3547 22.0146 27.7794 22.0109 28.1825C22.0109 34.825 22.0109 41.4683 22.0109 48.1108C22.0161 48.5333 21.9668 48.9804 22.1512 49.3753C22.4102 49.9903 23.0604 50.4046 23.7269 50.386C34.5756 50.3867 45.4244 50.3867 56.2731 50.386C57.1516 50.4225 57.966 49.6694 57.9839 48.7878C57.9988 47.3435 57.9816 45.8976 57.9913 44.4525C57.9652 44.1308 58.2556 43.8352 58.578 43.8629C58.8423 43.8666 59.0453 44.0831 59.1088 44.3271V48.9476C59.0349 49.4955 58.84 50.0351 58.484 50.4636C57.957 51.1272 57.1165 51.5168 56.2708 51.5056C51.9206 51.5071 47.5696 51.5056 43.2194 51.5064C43.3597 52.5626 43.5023 53.6195 43.6456 54.6765C44.0464 54.6869 44.4861 54.6138 44.8481 54.8325C45.137 54.993 45.3266 55.2885 45.4064 55.6043C45.6617 56.5396 45.9312 57.4719 46.179 58.4087C46.3604 59.0603 45.8521 59.7522 45.193 59.8314H34.8115C34.3614 59.7664 33.9554 59.4425 33.8322 58.9991C33.7314 58.6945 33.8188 58.3766 33.9053 58.081C34.1375 57.2576 34.3637 56.4321 34.5921 55.6073C34.6712 55.29 34.8608 54.9952 35.1512 54.8347C35.5117 54.6123 35.9528 54.6877 36.3544 54.6765C36.497 53.6195 36.6403 52.5626 36.7806 51.5056C32.4289 51.5056 28.0779 51.5071 23.7269 51.5056C23.044 51.5116 22.3632 51.2638 21.8512 50.8114C21.3055 50.3464 20.9808 49.6642 20.8912 48.9595V27.4666C20.939 26.8583 21.1674 26.2596 21.5727 25.7998C22.0848 25.2005 22.8596 24.8354 23.6478 24.8295C24.9563 24.8243 26.2648 24.834 27.5733 24.825C27.5786 24.2047 27.5606 23.5829 27.58 22.9626C27.6107 22.2647 28.2138 21.6735 28.9035 21.6138ZM28.6937 23.1074C28.69 24.1024 28.693 25.0974 28.693 26.0924C29.9022 26.0954 31.1129 26.0865 32.3222 26.0962C32.6573 26.0887 32.9335 26.4351 32.8574 26.7598C32.8096 27.0427 32.5252 27.2375 32.2445 27.2121C31.0607 27.2128 29.8768 27.2114 28.693 27.2121C28.6922 33.8173 28.6915 40.4218 28.693 47.027C36.2312 47.0277 43.7688 47.0277 51.307 47.027C51.3085 40.4225 51.3078 33.8173 51.307 27.2121C45.8461 27.2099 40.3837 27.2166 34.9227 27.2091C34.5256 27.2293 34.23 26.759 34.4182 26.4089C34.5294 26.1574 34.8197 26.0648 35.0765 26.091C40.4867 26.0939 45.8968 26.0917 51.3078 26.0924C51.307 25.0989 51.31 24.1062 51.3063 23.1134C51.3369 22.8835 51.1189 22.6977 50.898 22.7335C43.6322 22.7335 36.3663 22.7335 29.1013 22.7335C28.8826 22.6984 28.6646 22.8798 28.6937 23.1074ZM24.2502 28.1877C24.2502 34.4675 24.2502 40.7472 24.2502 47.027C25.3572 47.0285 26.4641 47.027 27.5711 47.0277C27.5786 40.751 27.5629 34.4734 27.5793 28.1967C26.4701 28.1758 25.3601 28.1937 24.2502 28.1877ZM52.4282 47.0277C53.5351 47.027 54.6421 47.0277 55.7498 47.027C55.7498 40.7472 55.7498 34.4675 55.7491 28.1877C54.6428 28.1869 53.5359 28.1884 52.4289 28.1869C52.4259 34.4667 52.4274 40.7472 52.4282 47.0277ZM37.916 51.5041C37.7644 52.5603 37.6278 53.6188 37.486 54.6765C39.1618 54.6757 40.8375 54.675 42.514 54.6772C42.3699 53.618 42.2393 52.5581 42.0803 51.5019C40.6919 51.5108 39.3043 51.5056 37.916 51.5041ZM35.6975 55.8028C35.4393 56.7732 35.1534 57.7369 34.9018 58.7095C38.3004 58.7132 41.6989 58.7132 45.0974 58.7095C44.8474 57.7369 44.56 56.7732 44.3025 55.8028C41.4347 55.7909 38.5661 55.7909 35.6975 55.8028Z" fill="#1C75BC" stroke="#1C75BC" stroke-width="0.15924"/>
<path d="M30.1717 23.8914C30.5598 23.7198 31.0249 24.1131 30.9189 24.5244C30.8569 24.9156 30.3374 25.1111 30.0336 24.8573C29.6865 24.6192 29.7731 24.0236 30.1717 23.8914Z" fill="#1C75BC" stroke="#1C75BC" stroke-width="0.15924"/>
<path d="M32.4125 23.8907C32.7999 23.7213 33.2619 24.1117 33.1589 24.5222C33.0984 24.9134 32.5797 25.1112 32.2744 24.8589C31.925 24.6215 32.0116 24.0221 32.4125 23.8907Z" fill="#1C75BC" stroke="#1C75BC" stroke-width="0.15924"/>
<path d="M34.6503 23.8914C35.0377 23.7204 35.502 24.1108 35.3975 24.5221C35.3378 24.917 34.8123 25.1133 34.5077 24.8543C34.1651 24.6139 34.2539 24.0227 34.6503 23.8914Z" fill="#1C75BC" stroke="#1C75BC" stroke-width="0.15924"/>
<path d="M30.3963 29.93C30.6613 29.7822 30.9748 29.8054 31.2674 29.8039C31.7877 29.8106 32.308 29.7957 32.8282 29.8099C33.1104 29.8128 33.3522 30.0681 33.3552 30.3473C33.3701 30.6347 33.1283 30.9094 32.8387 30.9183C32.2035 30.9347 31.5675 30.9191 30.9323 30.925C30.9271 32.241 30.939 33.5562 30.9263 34.8722C32.2438 34.8961 33.562 34.867 34.8794 34.8871C34.9011 34.4221 34.8765 33.9563 34.8906 33.4913C34.8891 33.1979 35.1534 32.9412 35.4452 32.9486C35.7349 32.9397 36.0028 33.192 36.0028 33.4831C36.0118 33.9787 36.0103 34.4758 36.0028 34.9715C35.9879 35.5268 35.4855 36.0053 34.9309 35.9986C33.5829 36.0015 32.2356 36.0015 30.8882 35.9986C30.3053 36.006 29.7917 35.4798 29.8134 34.8976C29.8096 33.5801 29.8119 32.2619 29.8126 30.9444C29.7955 30.5309 30.0239 30.1166 30.3963 29.93Z" fill="#1C75BC" stroke="#1C75BC" stroke-width="0.15924"/>
<path d="M37.477 29.8463C37.5898 29.8007 37.7137 29.8075 37.8338 29.803C41.7623 29.8082 45.6923 29.8 49.6208 29.8075C49.9724 29.788 50.2665 30.1575 50.1709 30.4957C50.112 30.7704 49.8298 30.9488 49.5566 30.9241C45.6229 30.9241 41.6892 30.9241 37.7547 30.9241C37.5062 30.9428 37.2471 30.8025 37.1635 30.5606C37.0531 30.2882 37.2024 29.95 37.477 29.8463Z" fill="#1C75BC" stroke="#1C75BC" stroke-width="0.15924"/>
<path d="M34.8369 30.7077C34.9451 30.6002 35.0661 30.4882 35.225 30.4696C35.5206 30.4113 35.8304 30.6375 35.8685 30.9353C35.9073 31.1361 35.8088 31.3287 35.6669 31.4638C35.0071 32.1199 34.3525 32.7813 33.6919 33.4367C33.4037 33.7502 32.8656 33.7614 32.5707 33.4523C32.2736 33.1545 31.9631 32.8679 31.6855 32.5529C31.3899 32.1774 31.7788 31.5758 32.2438 31.6878C32.6237 31.7975 32.829 32.1826 33.1223 32.423C33.6949 31.852 34.2674 31.2817 34.8369 30.7077Z" fill="#1C75BC" stroke="#1C75BC" stroke-width="0.15924"/>
<path d="M37.4763 32.0856C37.5681 32.055 37.6629 32.0408 37.7614 32.0438C41.6922 32.0445 45.6229 32.0438 49.5536 32.0438C49.8724 32.0072 50.1903 32.2655 50.1866 32.5924C50.203 32.9261 49.8836 33.1978 49.5596 33.1635C45.6251 33.1635 41.6907 33.1635 37.7562 33.1635C37.483 33.1881 37.2009 33.0089 37.1434 32.7335C37.0747 32.4738 37.2262 32.1819 37.4763 32.0856Z" fill="#1C75BC" stroke="#1C75BC" stroke-width="0.15924"/>
<path d="M29.8156 39.3098C29.8089 38.7634 30.2777 38.2655 30.8248 38.2469C31.4697 38.2305 32.1147 38.2424 32.7596 38.2409C33.035 38.2208 33.3022 38.4253 33.3463 38.6985C33.4135 39.0097 33.1604 39.3426 32.8402 39.3531C32.205 39.3695 31.5683 39.3538 30.9323 39.3598C30.9338 40.6683 30.9263 41.9768 30.9353 43.2853C31.0211 43.3518 31.1592 43.3002 31.2645 43.3174C32.4752 43.3055 33.6859 43.3316 34.8959 43.304C34.8847 42.8292 34.8795 42.3538 34.8951 41.8798C34.9153 41.4588 35.4744 41.2274 35.7916 41.5013C36.0857 41.7208 35.9946 42.1239 36.0073 42.4404C35.9901 42.836 36.0469 43.2383 35.9685 43.6287C35.8528 44.0907 35.4027 44.4371 34.9265 44.4333C33.5821 44.4363 32.2371 44.4363 30.8927 44.4333C30.3083 44.4438 29.791 43.9161 29.8134 43.3316C29.8119 41.991 29.8082 40.6504 29.8156 39.3098Z" fill="#1C75BC" stroke="#1C75BC" stroke-width="0.15924"/>
<path d="M37.4785 38.2802C37.5905 38.2355 37.7144 38.2414 37.8339 38.2377C41.7646 38.2437 45.6961 38.2347 49.6275 38.2422C49.9769 38.2265 50.2657 38.5952 50.1709 38.9311C50.1112 39.2051 49.8306 39.3827 49.5574 39.3588C45.6244 39.3588 41.6907 39.3588 37.7577 39.3588C37.5106 39.3783 37.2516 39.2409 37.1665 39.0013C37.0508 38.7274 37.2009 38.384 37.4785 38.2802Z" fill="#1C75BC" stroke="#1C75BC" stroke-width="0.15924"/>
<path d="M34.9168 39.0671C35.0944 38.8783 35.4034 38.8402 35.6192 38.9858C35.9215 39.1664 35.961 39.6314 35.6983 39.8651C35.031 40.5354 34.3622 41.2042 33.6919 41.8715C33.4037 42.185 32.8656 42.1962 32.5707 41.8872C32.2736 41.5893 31.9624 41.3027 31.6847 40.987C31.3921 40.613 31.7758 40.0151 32.2385 40.1218C32.6215 40.2271 32.8275 40.6175 33.1223 40.8578C33.7225 40.2629 34.3159 39.6613 34.9168 39.0671Z" fill="#1C75BC" stroke="#1C75BC" stroke-width="0.15924"/>
<path d="M37.4733 40.5219C37.5644 40.4898 37.6584 40.4756 37.7562 40.4786C41.6877 40.4786 45.6192 40.4793 49.5506 40.4786C49.8432 40.4472 50.1433 40.6555 50.1799 40.9541C50.2403 41.2788 49.9589 41.6057 49.6298 41.5953C45.6722 41.6027 41.7138 41.5967 37.7562 41.5982C37.5084 41.6176 37.2486 41.4781 37.165 41.2377C37.0523 40.966 37.2001 40.6271 37.4733 40.5219Z" fill="#1C75BC" stroke="#1C75BC" stroke-width="0.15924"/>
</g>
<defs>
<filter id="filter0_d_6858_56" x="0" y="0.722595" width="84" height="84" filterUnits="userSpaceOnUse" color-interpolation-filters="sRGB">
<feFlood flood-opacity="0" result="BackgroundImageFix"/>
<feColorMatrix in="SourceAlpha" type="matrix" values="0 0 0 0 0 0 0 0 0 0 0 0 0 0 0 0 0 0 127 0" result="hardAlpha"/>
<feOffset dx="4" dy="4"/>
<feComposite in2="hardAlpha" operator="out"/>
<feColorMatrix type="matrix" values="0 0 0 0 0 0 0 0 0 0.346216 0 0 0 0 0.508333 0 0 0 0.1 0"/>
<feBlend mode="normal" in2="BackgroundImageFix" result="effect1_dropShadow_6858_56"/>
<feBlend mode="normal" in="SourceGraphic" in2="effect1_dropShadow_6858_56" result="shape"/>
</filter>
</defs>
</svg>
