<svg width="84" height="84" viewBox="0 0 84 84" fill="none" xmlns="http://www.w3.org/2000/svg">
<g filter="url(#filter0_d_9011_30668)">
<rect width="80" height="80" rx="16" fill="#F0F9FF" shape-rendering="crispEdges"/>
<circle cx="31" cy="34" r="10" fill="#A5DDF8"/>
<path d="M32.2692 27.361C34.7221 24.9066 37.1765 22.4537 39.6295 20C45.371 20 51.1126 20 56.8549 20C56.8549 31.1759 56.8541 42.351 56.8549 53.5268C51.8273 53.5276 46.7997 53.5268 41.7721 53.5268C41.3216 54.3084 40.8682 55.0877 40.4199 55.8707C39.5567 55.3734 38.6936 54.8754 37.8296 54.3781C37.4808 54.6164 37.1149 54.8309 36.7327 55.012C36.7312 56.008 36.7327 57.004 36.732 58C34.4995 58 32.267 58 30.0337 58C30.0337 57.004 30.0337 56.008 30.0337 55.012C29.6537 54.8257 29.2848 54.6171 28.936 54.3781C28.0736 54.8769 27.2134 55.3779 26.3488 55.8714C25.2325 53.9388 24.117 52.0054 23 50.0734C23.8617 49.5717 24.7271 49.0782 25.5873 48.5757C25.5554 48.1541 25.5554 47.7311 25.5873 47.3103C24.7271 46.8063 23.8609 46.315 23 45.8133C24.117 43.8806 25.2325 41.9472 26.3488 40.0146C27.2127 40.5096 28.0736 41.0098 28.9353 41.5086C29.2848 41.2711 29.6507 41.0573 30.033 40.8755C30.0352 39.8795 30.033 38.8827 30.0337 37.8867C30.7789 37.886 31.5248 37.8875 32.2699 37.886C32.2692 34.3777 32.2707 30.8693 32.2692 27.361ZM41.2036 22.2273C41.2044 24.4635 41.2036 26.6997 41.2036 28.9359C38.9682 28.9367 36.732 28.9352 34.4965 28.9367C34.4957 31.9195 34.4965 34.9031 34.4965 37.8867C35.2416 37.8875 35.9868 37.886 36.732 37.8867C36.732 38.8827 36.732 39.878 36.7327 40.874C37.1142 41.0566 37.4816 41.2674 37.8296 41.5086C38.6936 41.0121 39.556 40.5126 40.4199 40.0161C41.5354 41.9495 42.6502 43.8821 43.7672 45.814C42.9062 46.3165 42.0423 46.813 41.1791 47.3103C41.2096 47.7318 41.2096 48.1549 41.1791 48.5764C42.0423 49.0737 42.9062 49.5702 43.7672 50.072C43.5304 50.4809 43.2936 50.8906 43.0576 51.3003C46.9148 51.3003 50.7712 51.3003 54.6283 51.3003C54.6276 41.6088 54.6283 31.918 54.6276 22.2266C50.1529 22.2266 45.6783 22.2258 41.2036 22.2273ZM36.0707 26.7094C37.0392 26.7086 38.0078 26.7101 38.9771 26.7094C38.9778 25.7401 38.9771 24.7708 38.9771 23.8015C38.0093 24.7723 37.0392 25.7401 36.0707 26.7094ZM32.2603 40.1133C32.2603 40.8785 32.2595 41.6429 32.261 42.4074C31.0973 42.7369 30.0204 43.3596 29.1542 44.2035C28.4892 43.8235 27.8287 43.4353 27.1629 43.0568C26.7881 43.704 26.4155 44.3527 26.0407 44.9998C26.7043 45.3784 27.3626 45.7643 28.0246 46.1443C27.7307 47.3221 27.7374 48.5675 28.0231 49.7469C27.3589 50.1209 26.7035 50.5098 26.0407 50.8869C26.4155 51.5341 26.7889 52.182 27.1629 52.8299C27.8287 52.4507 28.4892 52.0632 29.1542 51.6832C30.0204 52.5271 31.098 53.1483 32.261 53.4793C32.2595 54.2438 32.2603 55.0082 32.2603 55.7734C33.0084 55.7734 33.7573 55.7734 34.5054 55.7734C34.5054 55.0097 34.5054 54.246 34.5061 53.4823C35.6706 53.1505 36.7453 52.5241 37.6174 51.684C38.2809 52.064 38.9422 52.447 39.6027 52.8307C39.9768 52.182 40.3516 51.5341 40.7257 50.8854C40.0644 50.5024 39.4023 50.1209 38.7411 49.7395C39.0313 48.5646 39.0327 47.3214 38.7411 46.1473C39.4031 45.7658 40.0644 45.3836 40.7257 45.0013C40.3523 44.3527 39.9768 43.7047 39.6027 43.0561C38.9422 43.4398 38.2809 43.8227 37.6174 44.2027C36.7461 43.3618 35.6706 42.7362 34.5061 42.4037C34.5046 41.64 34.5054 40.877 34.5054 40.1133C33.7573 40.1133 33.0084 40.1133 32.2603 40.1133Z" fill="#2387E3"/>
<path d="M47.9203 26.708C49.4076 26.7065 50.8949 26.708 52.3823 26.7073C52.3838 27.4495 52.383 28.1917 52.383 28.9346C50.8957 28.9346 49.4083 28.9346 47.9203 28.9338C47.9195 28.1917 47.9203 27.4502 47.9203 26.708Z" fill="#2387E3"/>
<path d="M36.7416 31.1797C41.9554 31.179 47.1693 31.179 52.3832 31.179C52.3832 31.9219 52.3839 32.6641 52.3824 33.4063C47.1693 33.4063 41.9554 33.4063 36.7416 33.4063C36.7401 32.6641 36.7408 31.9219 36.7416 31.1797Z" fill="#2387E3"/>
<path d="M38.9769 35.6512C43.4456 35.6504 47.9143 35.6504 52.383 35.6512C52.383 36.3934 52.383 37.1348 52.383 37.877C47.9143 37.8778 43.4456 37.8785 38.9769 37.877C38.9769 37.1348 38.9762 36.3934 38.9769 35.6512Z" fill="#2387E3"/>
<path d="M48.4822 43.6335C49.3788 42.7384 50.2731 41.8426 51.1697 40.9475C51.6944 41.4715 52.2184 41.9962 52.7424 42.5209C51.3233 43.9422 49.902 45.362 48.4815 46.7826C47.429 45.7324 46.3781 44.6792 45.3264 43.6283C45.8511 43.1036 46.3759 42.5796 46.8999 42.0541C47.429 42.5781 47.9545 43.1073 48.4822 43.6335Z" fill="#2387E3"/>
<path d="M32.6127 44.6858C33.366 44.5077 34.1809 44.5982 34.8734 44.9463C35.7692 45.3886 36.4453 46.2511 36.6524 47.2293C36.8803 48.2416 36.5982 49.3512 35.9132 50.1312C35.3254 50.8185 34.4481 51.2475 33.5441 51.2853C32.5541 51.341 31.5536 50.9194 30.8953 50.1787C30.1761 49.3942 29.8785 48.2542 30.1152 47.2174C30.3757 45.9883 31.3888 44.9648 32.6127 44.6858ZM33.2012 46.8366C32.5815 46.9257 32.1243 47.5981 32.2943 48.206C32.4257 48.8072 33.1107 49.2131 33.6985 49.0172C34.2678 48.8628 34.6396 48.2082 34.4607 47.6412C34.3219 47.1061 33.7453 46.7357 33.2012 46.8366Z" fill="#2387E3"/>
</g>
<defs>
<filter id="filter0_d_9011_30668" x="0" y="0" width="84" height="84" filterUnits="userSpaceOnUse" color-interpolation-filters="sRGB">
<feFlood flood-opacity="0" result="BackgroundImageFix"/>
<feColorMatrix in="SourceAlpha" type="matrix" values="0 0 0 0 0 0 0 0 0 0 0 0 0 0 0 0 0 0 127 0" result="hardAlpha"/>
<feOffset dx="4" dy="4"/>
<feComposite in2="hardAlpha" operator="out"/>
<feColorMatrix type="matrix" values="0 0 0 0 0 0 0 0 0 0.346216 0 0 0 0 0.508333 0 0 0 0.1 0"/>
<feBlend mode="normal" in2="BackgroundImageFix" result="effect1_dropShadow_9011_30668"/>
<feBlend mode="normal" in="SourceGraphic" in2="effect1_dropShadow_9011_30668" result="shape"/>
</filter>
</defs>
</svg>
