<svg width="646" height="356" viewBox="0 0 646 356" fill="none" xmlns="http://www.w3.org/2000/svg">
<g opacity="0.2">
<path d="M128.495 220.678C124.014 207.915 119.759 191.616 126.665 178.709C133.407 166.131 148.309 160.622 163.005 156.06C178.071 151.373 193.383 145.701 200.474 132.588C200.721 132.136 200.556 131.581 200.104 131.334C199.652 131.088 199.097 131.252 198.851 131.704C192.088 144.221 177.166 149.729 162.45 154.292C147.384 158.978 132.092 164.651 125.021 177.846C117.765 191.39 122.123 208.182 126.727 221.295L127.755 224.234C132.338 237.183 137.086 250.563 133.941 263.552C129.748 280.899 112.791 291.422 98.3009 295.492C86.0303 298.945 72.9786 299.397 60.3585 299.828C56.2066 299.972 51.8903 300.116 47.6768 300.383C33.7823 301.226 13.619 303.733 -0.830386 315.736C-1.22091 316.065 -1.28257 316.641 -0.953708 317.052C-0.768724 317.278 -0.501523 317.381 -0.234323 317.381C-0.028784 317.381 0.176754 317.319 0.361738 317.175C14.4 305.522 34.1523 303.076 47.8001 302.254C51.9931 302.007 56.2888 301.843 60.4407 301.699C73.1841 301.247 86.3386 300.794 98.8148 297.28C113.799 293.066 131.372 282.112 135.75 263.984C139.018 250.439 134.188 236.792 129.502 223.597L128.495 220.678Z" fill="#EFF7FB"/>
<path d="M154.66 234.572C153.529 232.085 152.337 229.516 151.268 226.988C144.938 212.108 143.972 200.393 148.35 191.144C151.947 183.519 159.202 177.435 171.206 172.009C173.569 170.94 176.015 169.912 178.379 168.926C185.511 165.946 192.89 162.863 199.138 158.053C207.134 151.887 213.937 140.871 211.121 130.163C210.998 129.669 210.484 129.361 209.991 129.505C209.497 129.628 209.189 130.142 209.333 130.635C211.923 140.521 205.51 150.798 198.008 156.594C191.965 161.26 184.689 164.301 177.68 167.22C175.296 168.206 172.829 169.234 170.445 170.323C158.031 175.934 150.467 182.306 146.685 190.342C142.081 200.084 143.026 212.313 149.583 227.687C150.672 230.236 151.844 232.825 152.995 235.312C157.044 244.13 161.216 253.255 161.956 262.915C162.881 274.918 156.325 289.018 144.157 290.867C143.643 290.949 143.293 291.422 143.376 291.915C143.437 292.368 143.848 292.697 144.301 292.697C144.342 292.697 144.403 292.697 144.444 292.676C157.661 290.662 164.793 275.576 163.806 262.751C163.025 252.824 158.77 243.534 154.66 234.572Z" fill="#EFF7FB"/>
<path d="M645.877 286.962C645.63 286.51 645.055 286.346 644.623 286.592C624.275 297.794 597.328 297.095 564.524 284.516C557.125 281.68 549.685 278.433 542.47 275.288C524.362 267.396 505.638 259.236 485.783 256.667C453.225 252.433 421.449 263.511 397.401 273.623C389.097 277.117 380.752 280.92 372.675 284.599C353.703 293.231 334.074 302.171 313.685 307.7C258.888 322.54 232.374 304.062 221.439 291.71C206.476 274.795 205.099 253.687 210.155 241.211L210.258 240.944C210.422 240.553 210.566 240.163 210.751 239.793C210.998 239.279 211.265 238.786 211.512 238.354C213.012 235.929 214.615 234.264 216.075 233.647C216.897 233.257 217.883 233.134 219.014 233.257C237.204 238.416 247.625 238.334 250.872 233.01C252.743 229.989 251.386 226.495 250.379 223.946C250.03 223.042 249.557 221.809 249.639 221.48C249.865 220.966 250.461 220.288 251.037 219.63C252.249 218.253 253.503 216.815 252.989 215.314C252.517 213.978 250.728 213.362 249.125 212.848C249.084 212.827 249.064 212.827 249.022 212.807C249.125 212.766 249.228 212.724 249.331 212.683C251.715 211.697 253.565 210.834 253.955 209.415C254.079 209.004 254.12 208.367 253.627 207.689C252.311 205.798 251.037 204.77 250.091 204.03C249.043 203.208 248.817 202.962 248.837 202.427C248.879 201.461 249.989 200.989 251.797 200.269C253.483 199.612 255.415 198.851 256.504 197.186C258.662 193.898 256.812 192.644 253.997 190.712C252.558 189.746 250.605 188.41 248.344 186.355C242.342 180.949 241.87 177.887 240.842 171.146C240.431 168.535 239.938 165.267 238.972 161.177C238.211 157.971 237.101 155.422 235.662 153.449C235.087 152.545 234.409 151.497 233.648 150.469C234.779 148.866 235.169 147.222 234.779 145.557C234.018 142.33 230.483 139.329 224.255 136.616C224.07 136.534 223.885 136.534 223.7 136.575C223.659 134.993 223.577 133.39 223.412 131.807C223.371 131.293 222.899 130.923 222.405 130.985C221.891 131.026 221.521 131.499 221.583 131.992C223.762 153.86 213.814 176.489 196.22 189.643C193.774 191.473 191.122 193.199 188.532 194.884C180.825 199.899 172.87 205.079 169.212 213.588C163.929 225.899 170.198 239.176 174.412 245.979C176.94 250.09 179.9 253.974 182.757 257.756C186.477 262.668 190.341 267.766 193.239 273.274C197.843 282.071 200.433 294.711 193.918 303.877C193.63 304.288 193.712 304.864 194.144 305.172C194.308 305.296 194.493 305.337 194.678 305.337C194.966 305.337 195.254 305.193 195.439 304.946C202.447 295.122 199.755 281.701 194.904 272.411C191.944 266.759 188.039 261.62 184.257 256.626C181.421 252.885 178.502 249.021 176.015 245.013C169.171 233.935 167.321 222.754 170.938 214.307C174.371 206.312 182.099 201.297 189.56 196.426C192.17 194.72 194.863 192.973 197.35 191.123C213.69 178.894 223.618 158.752 223.762 138.404C229.126 140.789 232.415 143.461 233.011 145.989C233.319 147.283 232.929 148.558 231.819 149.873C231.593 150.161 231.531 150.551 231.696 150.88C231.737 150.962 231.778 151.024 231.839 151.106C232.703 152.237 233.484 153.449 234.162 154.518C235.498 156.347 236.485 158.67 237.204 161.629C238.149 165.637 238.663 168.864 239.054 171.454C240.102 178.195 240.678 181.895 247.152 187.752C249.495 189.89 251.53 191.267 253.01 192.274C256.031 194.329 256.114 194.514 255.024 196.179C254.243 197.351 252.681 197.967 251.181 198.563C249.29 199.303 247.152 200.146 247.029 202.345C246.967 203.866 247.892 204.606 248.981 205.49C249.865 206.209 250.975 207.093 252.147 208.758C252.229 208.86 252.208 208.902 252.208 208.902C252.023 209.58 249.66 210.546 248.653 210.957C247.214 211.553 246.515 211.841 246.289 212.478C246.186 212.766 246.207 213.074 246.33 213.341C246.638 213.958 247.358 214.204 248.57 214.595C249.331 214.841 251.098 215.437 251.263 215.91C251.427 216.403 250.379 217.596 249.68 218.397C248.981 219.199 248.324 219.939 247.995 220.72C247.563 221.686 248.036 222.919 248.694 224.604C249.598 226.906 250.708 229.804 249.331 232.024C247.46 235.086 240.76 237.47 219.487 231.428C219.445 231.407 219.384 231.407 219.343 231.407C217.842 231.222 216.486 231.407 215.335 231.942C213.074 232.908 211.162 235.415 209.95 237.388C209.662 237.881 209.374 238.416 209.107 238.971C208.901 239.382 208.737 239.793 208.552 240.224L208.449 240.471C203.167 253.461 204.564 275.391 220.062 292.881C228.325 302.233 245.282 315.017 275.969 314.997C286.883 314.997 299.544 313.373 314.158 309.427C334.691 303.857 354.382 294.896 373.435 286.222C381.492 282.543 389.817 278.762 398.1 275.268C421.942 265.238 453.41 254.262 485.536 258.435C505.144 260.983 523.746 269.081 541.73 276.932C548.945 280.077 556.406 283.324 563.846 286.181C597.164 298.986 624.645 299.643 645.486 288.154C645.959 287.969 646.123 287.414 645.877 286.962Z" fill="#EFF7FB"/>
</g>
</svg>
