<svg width="742" height="281" viewBox="0 0 742 281" fill="none" xmlns="http://www.w3.org/2000/svg">
<g opacity="0.2" clip-path="url(#clip0_17_1168)">
<path d="M482.974 135.353C483 126.5 486.348 116.248 495.331 114.941C504.472 113.607 506.668 111.685 501.634 116.523C496.6 121.361 491.134 123.44 484.87 121.557C480.542 120.263 476.841 111.881 478.437 103.094C479.457 97.497 479.287 102.257 482.726 106.664C488.139 113.607 484.046 121.584 485.511 118.118C487.158 114.195 493.108 104.794 499.149 104.166C510.552 102.976 509.114 101.721 507.819 103.931C504.602 109.449 497.044 113.385 490.885 111.214C479.966 107.37 486.609 93.0772 489.251 90.1089C491.134 88.0036 487.721 92.3057 489.774 98.4385C491.84 104.571 489.486 109.527 491.094 106.69C494.625 100.492 502.942 102.884 504.079 90.5666C504.602 84.9045 505.243 87.729 498.836 90.985C492.441 94.241 495.619 101.93 495.619 101.93" stroke="#EFF7FB" stroke-width="1.5" stroke-miterlimit="10" stroke-linecap="round" stroke-linejoin="round"/>
<path d="M0.523071 280.056C48.0293 263.422 56.4767 232.419 107.919 212.869C165.925 190.836 189.515 210.895 233.818 196.89C283.678 181.133 284.292 159.871 324.437 147.893C366.202 135.431 386.615 155.948 406.7 143.343C414.925 138.177 420.888 143.696 414.179 145.265C402.947 147.893 397.115 140.139 396.853 131.522C396.487 119.204 417.841 126.37 410.113 129.338C402.398 132.306 390.315 123.297 388.838 110.756C387.347 98.2162 413.486 107.265 400.122 108.154C386.758 109.043 377.723 88.239 376.99 79.0071C376.271 69.9583 413.787 85.8853 395.376 83.5185C376.964 81.1386 373.303 39.3466 379.043 47.5847C382.456 52.4883 411.708 78.8633 393.493 56.2936C375.277 33.7238 377.265 9.57186 383.986 31.3439C390.707 53.116 433.088 76.078 434.67 96.6732C436.252 117.268 453.278 131.809 460.208 126.173C467.139 120.538 474.854 120.328 478.319 123.99C481.784 127.651 488.623 128.972 486.531 126.723C484.282 124.317 481.876 127.167 479.012 129.142C474.919 131.953 474.657 146.559 469.113 153.294C463.569 160.028 451.682 169.064 424.771 172.869C415.33 174.203 408.151 176.713 403.81 179.839C395.755 185.631 395.755 185.566 391.27 184.023C382.652 181.055 390.537 184.363 400.763 174.543C403.784 171.653 387.661 181.395 384.235 180.715C380.782 180.022 369.053 174.7 369.694 172.712C370.125 171.365 375.63 171.47 390.001 166.736C398.03 164.095 365.274 170.175 363.548 169.286C357.271 166.082 354.015 163.441 352.198 162.094C348.314 159.217 346.549 156.157 396.134 154.915C424.85 154.196 440.45 161.126 442.294 171.823C443.353 177.995 447.589 183.435 452.99 185.069C461.437 187.632 469.597 186.285 464.379 178.832C460.914 173.889 457.697 177.629 459.633 181.107C461.581 184.611 466.053 187.881 471.114 190.117C481.209 194.576 489.394 186.978 485.668 180.911C480.62 172.699 474.357 180.728 484.779 190.705C496.56 201.99 513.206 193.006 511.807 188.626C509.336 180.911 500.326 181.996 504.38 187.737C513.847 201.127 540.575 194.105 538.509 191.725C534.455 187.07 516.201 178.871 523.393 178.819C532.899 178.753 537.45 183.762 549.232 184.455C564.126 185.331 575.96 180.519 574.783 178.74C573.593 176.962 570.023 179.499 554.881 179.708C538.535 179.93 523.144 162.251 496.926 155.19C481.771 151.11 471.088 150.338 474.618 155.399C478.319 160.695 513.899 145.566 545.806 111.332C585.819 68.3761 633.365 100.112 676.412 75.555C713.13 54.5936 718.23 32.6908 757.171 15.5608C804.155 -5.11285 816.368 18.3853 868.464 0.523041" stroke="#EFF7FB" stroke-width="1.5" stroke-miterlimit="10" stroke-linecap="round" stroke-linejoin="round"/>
</g>
<defs>
<clipPath id="clip0_17_1168">
<rect width="869" height="280.579" fill="white"/>
</clipPath>
</defs>
</svg>
