<svg width="500" height="110" viewBox="0 0 500 110" fill="none" xmlns="http://www.w3.org/2000/svg">
<path d="M67.5031 0.903868C68.599 0.532395 69.96 0.656219 70.7908 1.52299C71.5685 2.319 71.8513 3.45111 71.9397 4.53015C72.0281 5.7684 71.922 7.09509 71.2503 8.17413C70.2251 9.87229 67.4147 9.94305 66.2835 8.33333C65.3997 7.09509 65.3113 5.46768 65.4527 3.99948C65.5941 2.72586 66.2305 1.3461 67.5031 0.903868ZM68.2101 2.44283C67.6975 2.83199 67.7506 3.57494 67.7152 4.15868C67.7506 5.22003 67.6092 6.33445 67.9627 7.36043C68.1571 7.96186 69.0762 8.0503 69.3944 7.51963C69.6949 7.04202 69.6242 6.45828 69.6595 5.9276C69.6418 4.93701 69.6949 3.94641 69.4651 2.9735C69.359 2.44283 68.6697 2.07136 68.2101 2.44283Z" fill="white"/>
<path d="M74.5027 2.01828C75.5632 0.797725 77.5782 0.833103 78.7802 1.80601C79.5756 2.4782 79.7346 3.59262 79.6816 4.58321C79.0099 4.49477 78.3559 4.40632 77.6843 4.33556C77.6312 3.7872 77.755 3.00888 77.1363 2.74354C76.7121 2.4782 76.2879 2.90274 76.0935 3.25652C75.7046 4.08792 75.6516 5.00775 75.5278 5.9099C75.4748 6.49365 75.3864 7.09508 75.5809 7.66113C75.7576 8.17412 76.447 8.45715 76.8889 8.12105C77.3484 7.78496 77.3661 7.16584 77.5075 6.67054C78.1262 6.81205 78.7448 6.93588 79.3458 7.07739C79.169 7.80265 78.9569 8.58097 78.3736 9.09396C77.3484 10.1022 75.6339 9.99611 74.5027 9.25316C73.4245 8.5279 73.1593 7.11277 73.1947 5.89221C73.3361 4.56552 73.5659 3.07963 74.5027 2.01828Z" fill="white"/>
<path d="M61.2636 1.5407C61.9706 1.43456 62.6776 1.32843 63.367 1.22229C63.7912 3.99949 64.2154 6.7767 64.6573 9.53621C63.9503 9.66004 63.2256 9.76617 62.5186 9.89C62.3595 8.75789 62.1827 7.60809 62.006 6.47598C61.458 6.56443 60.9277 6.65287 60.3798 6.74132C60.5742 7.85574 60.7156 8.98785 60.9278 10.1023C60.2207 10.2438 59.496 10.3676 58.789 10.4561C58.3825 7.67885 57.9406 4.90164 57.5164 2.14213C58.2234 2.0183 58.9481 1.91217 59.6551 1.80603C59.7965 2.88507 59.9909 3.96412 60.15 5.04316C60.698 4.95471 61.2282 4.86627 61.7762 4.77782C61.5817 3.69878 61.405 2.61974 61.2636 1.5407Z" fill="white"/>
<path d="M85.0727 2.81433C85.762 3.04429 86.4514 3.29194 87.1407 3.50421C86.8403 5.43233 86.5574 7.36046 86.257 9.28858C87.3352 7.62579 88.378 5.94532 89.4209 4.26485C89.9865 4.45943 90.5698 4.65401 91.1354 4.84859C89.5269 7.27201 87.9185 9.67774 86.3277 12.1012C85.6383 11.8889 84.949 11.6412 84.2419 11.429C84.5071 8.54563 84.8252 5.67998 85.0727 2.81433Z" fill="white"/>
<path d="M89.2266 13.2156C90.3755 10.6507 91.489 8.06806 92.638 5.52081C93.2919 5.82153 93.946 6.12225 94.5999 6.40527C93.451 8.97021 92.3375 11.5351 91.1886 14.1001C90.5346 13.7994 89.8806 13.4986 89.2266 13.2156Z" fill="white"/>
<path d="M97.7283 6.82979L99.7433 6.06915C99.7433 6.06915 100.609 6.58214 101.034 6.84748C101.104 7.55505 101.299 8.95249 101.299 8.95249L100.203 8.2803L99.9907 7.09513L98.8949 7.53736L97.7283 6.82979Z" fill="white"/>
<path d="M92.2666 14.5069C93.6807 12.0835 95.0417 9.62471 96.4204 7.20129C97.9405 8.06806 99.4783 8.93484 100.998 9.80161C100.733 10.2792 100.468 10.7391 100.203 11.2167C99.3015 10.6861 98.3824 10.1731 97.4809 9.66009C97.1981 10.1731 96.9153 10.6684 96.6148 11.1637C97.2158 11.5175 97.8344 11.8712 98.4531 12.2073C98.1879 12.6673 97.9228 13.1449 97.6577 13.6048C97.039 13.251 96.438 12.9149 95.8371 12.5611C95.5543 13.0741 95.2538 13.5694 94.971 14.0824C95.8901 14.5954 96.8092 15.1084 97.7107 15.639C97.4102 16.1343 97.1451 16.6296 96.8446 17.1072C95.3245 16.2228 93.7867 15.3737 92.2666 14.5069Z" fill="white"/>
<path d="M68.0686 11.1637C68.0509 10.6507 68.0332 9.66008 68.0332 9.66008L69.571 9.6424V11.1637C69.5533 11.1637 68.5635 11.1637 68.0686 11.1637Z" fill="white"/>
<path d="M98.2764 18.0801C99.9909 15.8513 101.723 13.6401 103.438 11.429C103.897 11.8004 104.374 12.1719 104.834 12.5434C104.534 14.2062 104.233 15.8866 103.986 17.5671C104.922 16.3996 105.824 15.2144 106.761 14.047C107.203 14.3831 107.644 14.7191 108.069 15.0729C106.354 17.2841 104.622 19.4952 102.907 21.7064C102.465 21.3526 102.024 20.9988 101.564 20.645C101.847 18.9115 102.165 17.1779 102.448 15.4444C101.458 16.6473 100.521 17.8855 99.549 19.0884C99.1601 18.77 98.7183 18.4162 98.2764 18.0801Z" fill="white"/>
<path d="M67.9628 13.2687C75.2275 12.8264 82.5982 14.1885 89.2266 17.1957C95.254 19.9375 100.663 24.006 104.94 29.0474C109.271 34.1242 112.47 40.1562 114.185 46.5951C116.27 54.3607 116.235 62.6923 114.078 70.4402C112.258 77.0382 108.864 83.1764 104.322 88.2886C97.3574 96.1602 87.5651 101.502 77.1541 102.971C74.3437 103.377 71.5156 103.519 68.6875 103.413C68.1573 103.448 67.7507 103.059 67.3442 102.776C64.5161 100.476 61.4405 98.4068 58.0645 97.027C54.8475 95.6826 51.3301 95.0989 47.848 95.1696C44.1715 95.2581 40.548 95.8772 36.9068 96.2664C32.9651 96.6909 28.9881 96.8678 25.0288 96.4079C24.4632 95.1166 23.9152 93.8253 23.3496 92.5517C26.8494 93.6661 30.5789 93.5246 34.2024 93.33C39.1516 92.9762 44.0831 92.2686 49.0499 92.5163C52.5851 92.6755 56.1379 93.4361 59.2841 95.0635C62.8369 96.8855 65.7711 99.7865 67.9628 103.112C74.1316 102.918 80.265 101.502 85.8329 98.7959C92.037 95.8065 97.5164 91.3134 101.67 85.8121C106.071 80.01 108.97 73.0935 110.013 65.894C111.197 57.8631 110.084 49.4961 106.778 42.0667C104.251 36.3177 100.451 31.1171 95.7312 26.9601C90.4462 22.2902 84.0123 18.9292 77.1718 17.2841C67.733 15.0022 57.5342 15.9928 48.7318 20.0967C44.8078 21.901 41.1843 24.3244 37.9673 27.1901C45.6916 18.9646 56.6681 13.8524 67.9628 13.2687Z" fill="white"/>
<path d="M92.9028 16.8772C93.1503 16.4526 93.3978 16.0104 93.6452 15.5859C94.0694 15.8335 94.4936 16.0812 94.9355 16.3288C94.6881 16.7711 94.4583 17.1956 94.2108 17.6201C93.7689 17.3725 93.3447 17.1248 92.9028 16.8772Z" fill="white"/>
<path d="M106.142 24.8374C108.263 23.0154 110.437 21.2465 112.558 19.4245C113.318 20.3443 114.114 21.2288 114.838 22.184C115.422 22.9446 115.705 24.059 115.192 24.9258C114.609 25.8456 113.442 26.5178 112.346 26.1994C111.356 25.9164 110.667 25.085 110.084 24.2713C109.218 25.0143 108.352 25.7395 107.485 26.4648C107.026 25.9164 106.584 25.368 106.142 24.8374ZM111.215 23.3161C111.604 23.7583 112.063 24.3067 112.717 24.2182C113.053 24.0944 113.371 23.8114 113.477 23.4576C113.566 22.8739 113.124 22.4316 112.841 21.9894C112.276 22.4139 111.745 22.8739 111.215 23.3161Z" fill="white"/>
<path d="M0 22.0071C5.53246 25.262 11.9487 26.6948 18.2942 27.1193C23.4202 27.5439 28.5638 27.367 33.6897 27.5262C39.4873 27.65 45.3733 28.0922 50.8527 30.1088C55.1302 31.6654 59.0365 34.2658 62.1474 37.5913C63.7913 39.3072 65.223 41.2176 66.5133 43.2165C68.546 39.7317 71.215 36.6361 74.2906 34.0358C76.9242 31.86 79.8937 29.985 83.1991 29.0121C85.762 28.2691 88.6255 28.163 91.0824 29.3305C93.6984 30.5333 95.5013 32.9744 96.6148 35.5571C94.1049 36.6007 91.8778 38.2812 90.2163 40.4393C88.1659 43.0396 86.8402 46.1175 85.9565 49.2839C85.055 52.5387 84.5778 55.882 84.401 59.2429C83.5526 55.7404 83.5702 52.0611 84.2066 48.5232C84.8606 45.0385 86.1155 41.6422 88.2366 38.7765C89.5269 37.0253 91.2061 35.4509 93.3095 34.7434C91.7364 33.2221 89.633 32.1784 87.4235 32.1607C84.9666 32.0546 82.5981 32.9921 80.53 34.2481C78.0201 35.7693 75.8637 37.8213 73.937 40.0324C70.8968 43.5349 68.4753 47.568 66.4779 51.7427C64.7281 47.9218 62.5186 44.2602 59.6021 41.2176C56.2614 37.6975 51.9663 35.1679 47.3176 33.8058C41.0251 31.9308 34.379 31.9308 27.8568 32.0369C21.5466 32.1431 15.1657 32.5145 8.94385 31.294C6.78743 30.8517 4.66636 30.1619 2.68669 29.1536C1.78524 26.7655 0.901456 24.3775 0 22.0071Z" fill="white"/>
<path d="M110.313 29.8611C112.699 28.3929 115.086 26.907 117.472 25.4388C117.843 26.0403 118.214 26.6417 118.585 27.2431C117.649 27.7915 116.729 28.3929 115.793 28.959C116.093 29.4366 116.376 29.9142 116.676 30.3918C117.613 29.8258 118.532 29.242 119.469 28.676C119.823 29.2774 120.212 29.8788 120.565 30.4803C118.161 31.9308 115.793 33.4344 113.406 34.8849C113.035 34.2834 112.664 33.682 112.311 33.0983C113.283 32.4791 114.273 31.8777 115.262 31.2586C114.962 30.781 114.661 30.3034 114.361 29.8258C113.389 30.4449 112.399 31.0463 111.427 31.6654C111.056 31.0817 110.684 30.4803 110.313 29.8611Z" fill="white"/>
<path d="M116.606 34.9733C118.338 34.2303 120.07 33.4874 121.803 32.7444C122.085 33.4166 122.368 34.0888 122.651 34.7433C120.972 35.4509 119.293 36.1938 117.613 36.9014C117.225 37.0783 116.783 37.2375 116.553 37.6267C116.341 38.0335 116.606 38.5465 116.977 38.7588C117.401 38.9003 117.826 38.7057 118.214 38.5465C119.911 37.8036 121.608 37.0783 123.323 36.353C123.552 36.9014 123.8 37.4498 124.047 37.9804C122.315 38.7234 120.583 39.4663 118.851 40.2093C118.144 40.5277 117.295 40.7223 116.535 40.4216C115.758 40.1032 115.263 39.3602 114.962 38.5996C114.662 37.8743 114.52 37.0075 114.927 36.2823C115.316 35.6632 115.952 35.2386 116.606 34.9733Z" fill="white"/>
<path d="M113.248 38.688L114.644 38.0866L115.245 39.4841C115.245 39.4841 114.308 39.8909 113.849 40.0855C113.636 39.6079 113.248 38.688 113.248 38.688Z" fill="white"/>
<path d="M117.772 46.1882C120.53 45.6752 123.305 45.1269 126.08 44.667C126.186 45.2507 126.292 45.8168 126.398 46.4005C125.09 47.4619 123.747 48.5055 122.439 49.5669C123.906 49.3192 125.373 49.0362 126.84 48.7885C126.946 49.3546 127.052 49.9207 127.141 50.4867C124.383 50.9997 121.626 51.495 118.851 52.0257C118.745 51.4596 118.639 50.8936 118.533 50.3275C119.911 49.2485 121.272 48.1517 122.633 47.055C121.113 47.3203 119.593 47.6034 118.073 47.8864C117.985 47.3203 117.896 46.7543 117.772 46.1882Z" fill="white"/>
<path d="M9.03223 48.8062C14.3703 50.5044 20.0441 50.469 25.5589 49.9737C29.5359 49.6553 33.4776 49.1423 37.4546 48.9301C42.9871 48.6117 48.767 49.107 53.8045 51.5834C59.0188 54.113 63.1019 58.4822 66.2658 63.276C64.4099 61.6663 62.554 60.0389 60.5389 58.6414C56.8624 56.0057 52.7086 53.9184 48.2544 53.0163C44.2067 52.1672 40.0352 52.3441 35.9522 52.7686C30.8969 53.2993 25.8594 54.113 20.7688 54.1661C17.5519 54.2368 14.3172 54.0776 11.1179 53.6177C10.4463 52.008 9.73925 50.3983 9.03223 48.8062Z" fill="white"/>
<path d="M118.621 64.9034C121.484 64.7619 124.366 64.6558 127.247 64.532C127.105 65.2395 126.982 65.9471 126.858 66.6723C124.931 66.6547 123.004 66.6016 121.078 66.6547C122.863 67.4507 124.648 68.2467 126.434 69.0427C126.328 69.6264 126.221 70.2279 126.115 70.8116C123.482 69.5734 120.883 68.2998 118.25 67.0792C118.356 66.3539 118.48 65.6287 118.621 64.9034Z" fill="white"/>
<path d="M15.3777 69.5026C19.6198 70.847 24.1271 71.2185 28.546 71.0062C33.2654 70.8647 37.9671 70.1571 42.6865 69.9979C45.9918 69.8387 49.3325 70.051 52.5318 70.8824C55.4836 71.6607 58.2587 73.0758 60.6449 74.9686C63.6144 77.3036 66.036 80.2577 68.0687 83.424C63.5084 79.1432 58.2233 75.2693 52.0369 73.8011C47.4059 72.6513 42.5981 73.0935 37.9141 73.6773C32.47 74.3495 26.9729 75.057 21.4758 74.6679C20.1324 74.6148 18.7891 74.491 17.4457 74.3141C16.7741 72.7221 16.0847 71.0947 15.3777 69.5026Z" fill="white"/>
<path d="M116.959 72.1383C117.154 71.4484 117.348 70.7585 117.56 70.0687C120.247 70.847 122.952 71.6076 125.638 72.386C125.444 73.0758 125.232 73.7657 125.055 74.4556C122.368 73.6949 119.664 72.9166 116.959 72.1383Z" fill="white"/>
<path d="M114.715 78.1526C115.369 76.5075 116.023 74.8624 116.677 73.2173C119.293 74.261 121.909 75.3047 124.525 76.3306C123.888 77.9757 123.217 79.6208 122.58 81.2659C122.05 81.0714 121.537 80.8591 121.025 80.6645C121.414 79.6739 121.803 78.701 122.209 77.7104C121.679 77.4981 121.166 77.3036 120.636 77.0913C120.388 77.7635 120.106 78.418 119.858 79.0725C119.346 78.8602 118.833 78.6656 118.32 78.4534C118.586 77.7989 118.851 77.1267 119.098 76.4722C118.568 76.2599 118.055 76.0476 117.525 75.8354C117.118 76.8083 116.747 77.7988 116.341 78.7894C115.793 78.5772 115.245 78.3649 114.715 78.1526Z" fill="white"/>
<path d="M114.396 74.1902C114.856 74.3848 115.298 74.5794 115.758 74.7917C115.563 75.2516 115.351 75.7115 115.157 76.1891C114.697 75.9769 114.237 75.7823 113.778 75.57C113.99 75.1101 114.184 74.6502 114.396 74.1902Z" fill="white"/>
<path d="M124.419 78.984C124.613 78.5772 124.808 78.1703 125.02 77.7635C125.338 78.418 125.656 79.0902 125.974 79.7447C125.762 80.1869 125.585 80.6291 125.32 81.036C124.631 81.3013 123.889 81.3898 123.164 81.5844C123.376 81.1598 123.57 80.7353 123.782 80.3284C124.154 80.24 124.543 80.1515 124.931 80.0808C124.755 79.6916 124.578 79.3378 124.419 78.984Z" fill="white"/>
<path d="M112.329 82.7341C112.682 82.115 113.036 81.4959 113.389 80.8768C115.333 82.0089 117.313 83.0879 119.257 84.22C119.576 83.6717 119.894 83.1056 120.212 82.5396C120.671 82.8049 121.149 83.0702 121.608 83.3179C120.636 85.0514 119.664 86.7673 118.692 88.5008C118.232 88.2355 117.755 87.9701 117.295 87.7048C117.596 87.1564 117.914 86.6081 118.215 86.0597C116.253 84.9453 114.291 83.8309 112.329 82.7341Z" fill="white"/>
<path d="M107.751 89.2614C108.122 88.8369 108.475 88.4123 108.829 87.9878C110.968 89.7921 113.089 91.6318 115.192 93.4714C114.803 93.9137 114.467 94.4267 113.99 94.7804C112.346 94.4443 110.72 94.0552 109.059 93.7191C110.19 94.7097 111.303 95.7003 112.452 96.6732C112.081 97.0977 111.71 97.5223 111.356 97.9468C109.235 96.1248 107.114 94.2851 104.976 92.4455C105.347 92.0209 105.736 91.5964 106.124 91.1718C107.857 91.561 109.571 91.9502 111.303 92.3393C110.119 91.3134 108.935 90.2874 107.751 89.2614Z" fill="white"/>
<path d="M103.42 93.9844C103.862 93.5953 104.304 93.2061 104.745 92.7993C106.124 95.3288 107.485 97.8761 108.882 100.406C108.175 101.025 107.503 101.644 106.796 102.263C104.48 100.565 102.165 98.8667 99.8494 97.1685C100.38 96.6909 100.928 96.231 101.458 95.7357C101.917 96.0895 102.342 96.4609 102.837 96.7616C103.349 96.3725 103.791 95.9302 104.286 95.5234C104.003 95.0104 103.72 94.4974 103.42 93.9844ZM104.038 97.7169C104.975 98.4244 105.877 99.1674 106.796 99.8926C106.23 98.8667 105.629 97.8407 105.064 96.8147C104.728 97.1154 104.374 97.4161 104.038 97.7169Z" fill="white"/>
<path d="M97.9757 98.5129C98.4176 98.2299 98.8772 97.9292 99.3191 97.6284C100.857 99.9811 102.395 102.351 103.932 104.704C103.102 105.235 102.271 105.783 101.44 106.314C100.344 105.164 99.213 104.032 98.0995 102.9C98.6474 104.403 99.213 105.907 99.7433 107.428C98.9302 107.941 98.1348 108.472 97.3217 109.003C95.8016 106.65 94.2639 104.297 92.7261 101.945C93.327 101.555 93.9103 101.166 94.4936 100.777C95.6072 102.493 96.7031 104.209 97.8343 105.907C97.1803 103.908 96.438 101.945 95.7486 99.9634C96.1198 99.7335 96.4733 99.4858 96.8445 99.2558C98.3292 100.812 99.867 102.316 101.387 103.837C100.291 102.051 99.107 100.3 97.9757 98.5129Z" fill="white"/>
<path d="M127.724 58.5C127.565 57.8631 127.565 57.2086 127.547 56.5541C125.78 56.6072 123.994 56.6603 122.227 56.7664C121.661 56.7664 120.954 56.8549 120.601 56.3242C120.282 55.7404 120.777 55.0506 121.414 55.0329C123.429 54.9444 125.444 54.856 127.459 54.7852C127.441 54.0777 127.406 53.3524 127.388 52.6271C125.726 52.7156 124.047 52.7333 122.386 52.8394C121.679 52.8748 120.936 52.8394 120.282 53.1401C119.558 53.4408 119.027 54.1661 118.957 54.9444C118.851 55.8643 118.921 56.8902 119.487 57.6509C119.947 58.2877 120.76 58.553 121.52 58.553C123.323 58.5353 125.126 58.3938 126.928 58.3584C127.317 59.0306 127.971 59.8974 128.873 59.6144C129.35 59.4905 129.421 58.9776 129.527 58.553C129.297 58.04 128.926 57.7393 128.378 57.7747C128.077 57.9516 127.901 58.2169 127.724 58.5Z" fill="white"/>
<path d="M129.439 56.9963C129.209 56.3065 130.075 55.6343 129.898 54.8736C129.739 54.2368 129.067 53.9892 128.537 53.7415C128.519 54.0069 128.502 54.2722 128.502 54.5375C128.643 54.7144 128.891 54.8382 128.944 55.0682C129.103 55.8465 128.36 56.5541 128.431 57.3678C128.678 57.8985 129.138 57.9515 129.562 58.1284C129.651 58.1461 129.757 58.1992 129.933 58.1992C129.951 58.0046 129.951 57.6862 129.951 57.6862C129.951 57.6862 129.527 57.2794 129.439 56.9963Z" fill="white"/>
<path d="M172.603 42.6791H168.529V33.4159H163.282V42.6791H159.208V21.4855H163.282V29.8789H168.529V21.4855H172.603V42.6791ZM191.122 32.0533C191.122 33.7349 190.967 35.2521 190.658 36.6051C190.348 37.9485 189.885 39.0937 189.266 40.0408C188.648 40.9878 187.865 41.7127 186.918 42.2152C185.98 42.7177 184.879 42.969 183.613 42.969C182.337 42.969 181.225 42.7177 180.278 42.2152C179.331 41.703 178.549 40.9685 177.93 40.0118C177.312 39.055 176.848 37.905 176.538 36.5616C176.229 35.2183 176.074 33.7059 176.074 32.0243C176.074 29.6469 176.36 27.6513 176.93 26.0373C177.5 24.4234 178.346 23.2057 179.467 22.3843C180.588 21.5628 181.97 21.1521 183.613 21.1521C185.323 21.1521 186.729 21.5918 187.831 22.4712C188.942 23.3507 189.769 24.607 190.31 26.2403C190.851 27.8639 191.122 29.8015 191.122 32.0533ZM180.293 32.0533C180.293 33.6769 180.419 35.0347 180.67 36.1268C180.921 37.2091 181.293 38.0258 181.786 38.5766C182.279 39.1178 182.888 39.3884 183.613 39.3884C184.347 39.3884 184.956 39.1227 185.439 38.5911C185.932 38.0596 186.299 37.2526 186.541 36.1702C186.792 35.0879 186.918 33.7155 186.918 32.0533C186.918 29.5696 186.642 27.7237 186.091 26.5157C185.541 25.298 184.714 24.6892 183.613 24.6892C182.888 24.6892 182.279 24.9646 181.786 25.5155C181.293 26.0663 180.921 26.8878 180.67 27.9798C180.419 29.0719 180.293 30.4297 180.293 32.0533ZM183.54 48.9995C182.835 48.9995 182.303 48.8158 181.945 48.4486C181.598 48.0814 181.424 47.5353 181.424 46.8105C181.424 46.076 181.593 45.5252 181.931 45.1579C182.269 44.7907 182.806 44.6071 183.54 44.6071C184.265 44.6071 184.796 44.7907 185.135 45.1579C185.473 45.5252 185.642 46.076 185.642 46.8105C185.642 47.5353 185.463 48.0814 185.106 48.4486C184.758 48.8158 184.236 48.9995 183.54 48.9995ZM201.87 24.6892C201.252 24.6892 200.711 24.8728 200.247 25.24C199.783 25.6073 199.396 26.1291 199.087 26.8056C198.787 27.4725 198.56 28.2601 198.406 29.1685C198.261 30.077 198.188 31.0675 198.188 32.1403C198.188 33.7155 198.338 35.0492 198.638 36.1413C198.937 37.2236 199.377 38.0451 199.957 38.6056C200.537 39.1661 201.242 39.4464 202.073 39.4464C202.73 39.4464 203.354 39.3353 203.943 39.113C204.533 38.8907 205.118 38.6249 205.697 38.3157V41.9398C205.089 42.278 204.431 42.5341 203.726 42.7081C203.03 42.882 202.281 42.969 201.479 42.969C199.884 42.969 198.527 42.5486 197.405 41.7078C196.294 40.8574 195.444 39.6252 194.854 38.0113C194.265 36.3877 193.97 34.421 193.97 32.1113C193.97 30.5264 194.134 29.0719 194.463 27.7479C194.801 26.4142 195.294 25.2594 195.941 24.2833C196.589 23.2975 197.381 22.5341 198.319 21.9929C199.266 21.4517 200.348 21.1811 201.566 21.1811C202.416 21.1811 203.238 21.2874 204.03 21.5C204.823 21.7126 205.586 22.0412 206.321 22.4857L205.161 25.8489C204.639 25.4913 204.112 25.211 203.581 25.0081C203.049 24.7955 202.479 24.6892 201.87 24.6892ZM228.21 21.4855L222.918 42.6791H218.222L212.974 21.4855H217.221L219.773 33.4449C219.869 33.8895 219.971 34.4114 220.077 35.0105C220.183 35.6001 220.28 36.1896 220.367 36.7791C220.454 37.3589 220.522 37.8615 220.57 38.2867C220.628 37.8615 220.7 37.3589 220.787 36.7791C220.884 36.1896 220.986 35.6001 221.092 35.0105C221.208 34.421 221.314 33.8992 221.411 33.4449L223.991 21.4855H228.21ZM230.42 42.6791V21.4855H234.493V42.6791H230.42ZM248.127 42.6791H238.603V21.4855H248.127V24.9501H242.676V29.9368H247.75V33.4159H242.676V39.142H248.127V42.6791ZM243.3 48.9995C242.594 48.9995 242.063 48.8158 241.705 48.4486C241.357 48.0814 241.183 47.5353 241.183 46.8105C241.183 46.076 241.352 45.5252 241.69 45.1579C242.029 44.7907 242.565 44.6071 243.3 44.6071C244.024 44.6071 244.556 44.7907 244.894 45.1579C245.232 45.5252 245.402 46.076 245.402 46.8105C245.402 47.5353 245.223 48.0814 244.865 48.4486C244.517 48.8158 243.995 48.9995 243.3 48.9995ZM245.068 15.1216C245.29 15.5565 245.547 16.0204 245.836 16.5133C246.136 16.9965 246.455 17.4942 246.793 18.0064C247.141 18.5089 247.499 19.0018 247.866 19.485V19.8764H245.547C245.208 19.5768 244.851 19.2289 244.474 18.8327C244.107 18.4268 243.71 17.9726 243.285 17.47C242.86 17.9726 242.459 18.4364 242.082 18.8617C241.705 19.2869 241.367 19.6251 241.067 19.8764H238.719V19.485C239.028 19.0984 239.361 18.6394 239.719 18.1079C240.086 17.5667 240.434 17.0303 240.763 16.4988C241.091 15.9576 241.347 15.4985 241.531 15.1216H245.068ZM266.24 42.6791H261.456L255.251 27.8929H255.136C255.193 28.579 255.237 29.2265 255.266 29.8354C255.305 30.4345 255.329 30.9854 255.338 31.4879C255.358 31.9905 255.367 32.4447 255.367 32.8506V42.6791H251.569V21.4855H256.324L262.5 35.9383H262.616C262.577 35.2715 262.543 34.653 262.514 34.0828C262.485 33.5029 262.461 32.9666 262.442 32.4737C262.422 31.9808 262.413 31.5314 262.413 31.1255V21.4855H266.24V42.6791ZM281.344 21.4855C283.499 21.4855 285.099 22.046 286.142 23.1671C287.196 24.2785 287.723 25.902 287.723 28.0378C287.723 29.1105 287.587 30.0866 287.317 30.9661C287.056 31.8359 286.655 32.5848 286.114 33.213C285.572 33.8412 284.891 34.3244 284.07 34.6626C283.248 35.0009 282.277 35.17 281.156 35.17H280.04V42.6791H275.966V21.4855H281.344ZM281.04 24.9501H280.04V31.6909H280.75C281.397 31.6909 281.939 31.5701 282.373 31.3285C282.808 31.0869 283.137 30.7003 283.359 30.1688C283.581 29.6372 283.693 28.9366 283.693 28.0668C283.693 26.9844 283.47 26.1968 283.026 25.7039C282.591 25.2014 281.929 24.9501 281.04 24.9501ZM304.212 42.6791H300.138V33.4159H294.891V42.6791H290.817V21.4855H294.891V29.8789H300.138V21.4855H304.212V42.6791ZM321.31 21.4855V35.7064C321.31 37.3299 321.059 38.6781 320.556 39.7508C320.054 40.8236 319.314 41.6305 318.338 42.1717C317.362 42.7032 316.154 42.969 314.714 42.969C312.617 42.969 311.003 42.3795 309.872 41.2005C308.751 40.0118 308.191 38.2094 308.191 35.7933V21.4855H312.25V35.6484C312.25 36.9917 312.462 37.9533 312.888 38.5331C313.313 39.1033 313.931 39.3884 314.743 39.3884C315.313 39.3884 315.782 39.2676 316.149 39.026C316.526 38.7747 316.806 38.3737 316.99 37.8228C317.183 37.272 317.28 36.5375 317.28 35.6194V21.4855H321.31ZM314.787 48.9995C314.081 48.9995 313.55 48.8158 313.192 48.4486C312.844 48.0814 312.67 47.5353 312.67 46.8105C312.67 46.076 312.839 45.5252 313.177 45.1579C313.516 44.7907 314.052 44.6071 314.787 44.6071C315.511 44.6071 316.043 44.7907 316.381 45.1579C316.719 45.5252 316.889 46.076 316.889 46.8105C316.889 47.5353 316.71 48.0814 316.352 48.4486C316.004 48.8158 315.482 48.9995 314.787 48.9995ZM345.605 42.6791H340.821L334.617 27.8929H334.501C334.559 28.579 334.602 29.2265 334.631 29.8354C334.67 30.4345 334.694 30.9854 334.704 31.4879C334.723 31.9905 334.733 32.4447 334.733 32.8506V42.6791H330.935V21.4855H335.69L341.865 35.9383H341.981C341.942 35.2715 341.909 34.653 341.88 34.0828C341.851 33.5029 341.826 32.9666 341.807 32.4737C341.788 31.9808 341.778 31.5314 341.778 31.1255V21.4855H345.605V42.6791ZM362.703 21.4855V24.4572C363.254 24.4089 363.67 24.177 363.95 23.7614C364.24 23.3362 364.433 22.7998 364.53 22.1523C364.636 21.5048 364.689 20.8283 364.689 20.1228H368.255L368.429 20.4708C368.323 21.6691 368.125 22.6839 367.835 23.515C367.545 24.3461 367.163 25.0226 366.69 25.5445C366.226 26.0663 365.66 26.4529 364.994 26.7042C364.327 26.9458 363.563 27.0762 362.703 27.0956V34.8656C362.703 36.6438 362.452 38.1369 361.949 39.3449C361.447 40.5433 360.708 41.4469 359.731 42.0557C358.755 42.6646 357.547 42.969 356.107 42.969C354.01 42.969 352.396 42.2973 351.266 40.954C350.145 39.6107 349.584 37.615 349.584 34.9671V21.4855H353.643V34.8366C353.643 36.4215 353.856 37.5764 354.281 38.3012C354.706 39.026 355.325 39.3884 356.136 39.3884C356.707 39.3884 357.175 39.2338 357.543 38.9245C357.919 38.6056 358.2 38.1127 358.383 37.4459C358.577 36.7694 358.673 35.89 358.673 34.8076V21.4855H362.703ZM351.425 19.8184C351.444 19.3545 351.488 18.8665 351.556 18.3543C351.633 17.8421 351.763 17.3637 351.947 16.9192C352.131 16.465 352.387 16.0977 352.715 15.8175C353.053 15.5372 353.484 15.3971 354.005 15.3971C354.402 15.3971 354.779 15.4744 355.136 15.629C355.494 15.774 355.842 15.9479 356.18 16.1509C356.518 16.3538 356.847 16.5326 357.166 16.6872C357.485 16.8322 357.799 16.9047 358.108 16.9047C358.378 16.9047 358.581 16.7694 358.717 16.4988C358.852 16.2282 358.953 15.8513 359.021 15.3681H361.138C361.109 16.7984 360.848 17.8953 360.355 18.6587C359.862 19.4125 359.258 19.7894 358.543 19.7894C358.166 19.7894 357.784 19.7121 357.398 19.5575C357.021 19.4029 356.653 19.2289 356.296 19.0356C355.938 18.8327 355.605 18.6539 355.296 18.4993C354.986 18.3446 354.716 18.2673 354.484 18.2673C354.271 18.2673 354.073 18.393 353.889 18.6442C353.715 18.8858 353.595 19.2772 353.527 19.8184H351.425ZM388.564 21.4855L383.273 42.6791H378.576L373.328 21.4855H377.576L380.127 33.4449C380.224 33.8895 380.325 34.4114 380.432 35.0105C380.538 35.6001 380.635 36.1896 380.722 36.7791C380.808 37.3589 380.876 37.8615 380.924 38.2867C380.982 37.8615 381.055 37.3589 381.142 36.7791C381.239 36.1896 381.34 35.6001 381.446 35.0105C381.562 34.421 381.669 33.8992 381.765 33.4449L384.346 21.4855H388.564ZM390.774 42.6791V21.4855H394.848V42.6791H390.774ZM408.481 42.6791H398.957V21.4855H408.481V24.9501H403.031V29.9368H408.104V33.4159H403.031V39.142H408.481V42.6791ZM403.654 48.9995C402.949 48.9995 402.417 48.8158 402.059 48.4486C401.712 48.0814 401.538 47.5353 401.538 46.8105C401.538 46.076 401.707 45.5252 402.045 45.1579C402.383 44.7907 402.92 44.6071 403.654 44.6071C404.379 44.6071 404.91 44.7907 405.249 45.1579C405.587 45.5252 405.756 46.076 405.756 46.8105C405.756 47.5353 405.577 48.0814 405.22 48.4486C404.872 48.8158 404.35 48.9995 403.654 48.9995ZM405.423 15.1216C405.645 15.5565 405.901 16.0204 406.191 16.5133C406.49 16.9965 406.809 17.4942 407.148 18.0064C407.496 18.5089 407.853 19.0018 408.22 19.485V19.8764H405.901C405.563 19.5768 405.205 19.2289 404.828 18.8327C404.461 18.4268 404.065 17.9726 403.64 17.47C403.214 17.9726 402.813 18.4364 402.436 18.8617C402.059 19.2869 401.721 19.6251 401.422 19.8764H399.073V19.485C399.382 19.0984 399.716 18.6394 400.073 18.1079C400.441 17.5667 400.789 17.0303 401.117 16.4988C401.446 15.9576 401.702 15.4985 401.886 15.1216H405.423ZM418.404 42.6791H414.388V25.0081H410.445V21.4855H422.318V25.0081H418.404V42.6791ZM445.279 42.6791H440.496L434.291 27.8929H434.175C434.233 28.579 434.277 29.2265 434.306 29.8354C434.344 30.4345 434.368 30.9854 434.378 31.4879C434.397 31.9905 434.407 32.4447 434.407 32.8506V42.6791H430.609V21.4855H435.364L441.539 35.9383H441.655C441.617 35.2715 441.583 34.653 441.554 34.0828C441.525 33.5029 441.501 32.9666 441.481 32.4737C441.462 31.9808 441.452 31.5314 441.452 31.1255V21.4855H445.279V42.6791ZM458.753 42.6791L457.652 37.5764H452.94L451.839 42.6791H447.475L452.607 21.4855H457.869L463.088 42.6791H458.753ZM457.028 34.0393L455.883 28.4292C455.806 27.9653 455.728 27.5111 455.651 27.0666C455.583 26.622 455.516 26.1968 455.448 25.7909C455.39 25.3753 455.337 24.9888 455.289 24.6312C455.26 24.9694 455.216 25.3415 455.158 25.7474C455.1 26.1533 455.033 26.5785 454.955 27.0231C454.878 27.4676 454.791 27.917 454.694 28.3712L453.564 34.0393H457.028ZM473.199 42.6791L469.009 27.0376H468.893C468.941 27.6851 468.98 28.2939 469.009 28.8641C469.038 29.4343 469.057 29.961 469.067 30.4442C469.086 30.9274 469.096 31.3623 469.096 31.7489V42.6791H465.298V21.4855H470.908L474.822 35.9963H474.924L478.838 21.4855H484.419V42.6791H480.534V31.7199C480.534 31.285 480.539 30.8308 480.548 30.3572C480.568 29.874 480.587 29.3618 480.606 28.8206C480.635 28.2698 480.669 27.6851 480.708 27.0666H480.592L476.373 42.6791H473.199Z" fill="white"/>
<path d="M168.235 66.0913L164.187 82.5752H161.323L157.309 66.0913H159.903L162.169 76.4304C162.244 76.7611 162.319 77.1294 162.394 77.5353C162.469 77.9412 162.537 78.3471 162.597 78.753C162.657 79.1514 162.71 79.5159 162.755 79.8467C162.8 79.5159 162.853 79.1514 162.913 78.753C162.981 78.3546 163.052 77.9525 163.127 77.5466C163.21 77.1407 163.289 76.7649 163.364 76.4191L165.653 66.0913H168.235ZM172.034 70.0713V82.5752H169.678V70.0713H172.034ZM170.873 65.257C171.332 65.257 171.666 65.3885 171.876 65.6516C172.087 65.9147 172.192 66.2867 172.192 66.7678C172.192 67.2338 172.079 67.5984 171.854 67.8615C171.636 68.117 171.309 68.2448 170.873 68.2448C170.445 68.2448 170.11 68.117 169.87 67.8615C169.637 67.5984 169.52 67.2338 169.52 66.7678C169.52 66.2717 169.633 65.8959 169.858 65.6403C170.084 65.3847 170.422 65.257 170.873 65.257ZM178.619 69.8571C179.513 69.8571 180.261 70.0976 180.863 70.5787C181.464 71.0523 181.915 71.71 182.216 72.5518C182.516 73.3937 182.667 74.3596 182.667 75.4495V76.9039H176.713C176.728 78.2268 176.946 79.2153 177.367 79.8692C177.796 80.5156 178.446 80.8389 179.318 80.8389C179.806 80.8389 180.276 80.7712 180.727 80.6359C181.178 80.4931 181.656 80.2638 182.159 79.9481V81.9776C181.693 82.2557 181.201 82.4624 180.682 82.5977C180.164 82.733 179.607 82.8007 179.013 82.8007C177.916 82.8007 177.025 82.5339 176.341 82.0002C175.657 81.459 175.157 80.7073 174.842 79.7452C174.534 78.7831 174.38 77.6669 174.38 76.3966C174.38 74.991 174.537 73.8033 174.853 72.8337C175.169 71.864 175.642 71.1274 176.274 70.6238C176.905 70.1127 177.687 69.8571 178.619 69.8571ZM178.653 71.7513C178.074 71.7513 177.619 72.0219 177.288 72.5631C176.958 73.1043 176.774 73.9574 176.736 75.1225H180.468C180.468 74.4761 180.4 73.901 180.265 73.3974C180.13 72.8863 179.927 72.4842 179.656 72.191C179.393 71.8979 179.059 71.7513 178.653 71.7513ZM188.484 80.7148C188.68 80.7148 188.883 80.6923 189.093 80.6472C189.311 80.5946 189.525 80.5194 189.736 80.4217V82.3384C189.458 82.4812 189.15 82.594 188.811 82.6767C188.481 82.7594 188.124 82.8007 187.74 82.8007C187.109 82.8007 186.594 82.6692 186.196 82.4061C185.797 82.1355 185.504 81.7333 185.316 81.1997C185.136 80.666 185.046 79.9932 185.046 79.1815V72.0444H183.85V70.7591L185.203 70.139L185.79 67.3315H187.413V70.0713H189.589V72.0444H187.413V79.0236C187.413 79.5949 187.488 80.0196 187.639 80.2977C187.797 80.5758 188.079 80.7148 188.484 80.7148ZM196.568 69.8346C197.591 69.8346 198.369 70.1991 198.902 70.9282C199.444 71.6573 199.714 72.7397 199.714 74.1754V82.5752H197.346V74.7842C197.346 73.8447 197.237 73.1381 197.019 72.6646C196.802 72.1835 196.426 71.943 195.892 71.943C195.17 71.943 194.652 72.2775 194.336 72.9464C194.028 73.6154 193.874 74.7241 193.874 76.2725V82.5752H191.506V70.0713H193.389L193.637 71.7738H193.795C193.975 71.368 194.201 71.0222 194.471 70.7366C194.742 70.4434 195.054 70.2217 195.407 70.0713C195.76 69.9135 196.148 69.8346 196.568 69.8346ZM206.355 69.8346C207.543 69.8346 208.418 70.2066 208.982 70.9508C209.546 71.6949 209.828 72.7848 209.828 74.2205V82.5752H208.069L207.697 80.8501H207.64C207.415 81.2711 207.163 81.6281 206.885 81.9213C206.607 82.2144 206.287 82.4324 205.927 82.5752C205.573 82.7255 205.16 82.8007 204.686 82.8007C204.017 82.8007 203.472 82.6241 203.052 82.2708C202.631 81.91 202.322 81.4402 202.127 80.8614C201.932 80.2826 201.834 79.6663 201.834 79.0123C201.834 77.742 202.191 76.7686 202.905 76.0921C203.627 75.4156 204.649 75.0473 205.972 74.9872L207.46 74.9083V74.2318C207.46 73.3899 207.34 72.7698 207.099 72.3714C206.859 71.973 206.464 71.7738 205.915 71.7738C205.562 71.7738 205.183 71.8415 204.777 71.9768C204.378 72.1046 203.939 72.3075 203.457 72.5856L202.77 70.8155C203.288 70.4923 203.848 70.248 204.45 70.0826C205.058 69.9172 205.694 69.8346 206.355 69.8346ZM207.471 76.5544L206.479 76.6108C205.72 76.6559 205.156 76.8701 204.788 77.2534C204.42 77.6368 204.235 78.193 204.235 78.9221C204.235 79.5911 204.352 80.0872 204.585 80.4104C204.825 80.7336 205.16 80.8952 205.588 80.8952C206.167 80.8952 206.626 80.6171 206.964 80.0609C207.302 79.4971 207.471 78.7305 207.471 77.7608V76.5544ZM223.222 69.8346C224.245 69.8346 225.004 70.1991 225.5 70.9282C226.003 71.6498 226.255 72.7548 226.255 74.2431V82.5752H223.888V74.8406C223.888 73.8259 223.767 73.0893 223.527 72.6307C223.286 72.1722 222.929 71.943 222.456 71.943C221.787 71.943 221.313 72.2775 221.035 72.9464C220.757 73.6079 220.618 74.5926 220.618 75.9005V82.5752H218.25V74.8068C218.25 74.1303 218.197 73.5816 218.092 73.1607C217.987 72.7397 217.829 72.4316 217.619 72.2361C217.416 72.0407 217.156 71.943 216.841 71.943C216.345 71.943 215.961 72.1196 215.691 72.4729C215.428 72.8187 215.243 73.3148 215.138 73.9612C215.033 74.6001 214.98 75.3593 214.98 76.2387V82.5752H212.613V70.0713H214.496L214.755 71.7513H214.901C215.059 71.3454 215.27 70.9996 215.533 70.714C215.796 70.4284 216.108 70.2104 216.469 70.0601C216.837 69.9097 217.243 69.8346 217.686 69.8346C218.408 69.8346 218.979 70.0187 219.4 70.387C219.821 70.7478 220.11 71.2063 220.268 71.7626H220.437C220.723 71.1237 221.084 70.6426 221.52 70.3194C221.963 69.9962 222.531 69.8346 223.222 69.8346ZM248.929 66.0913L245.614 82.5752H242.739L240.901 73.2621C240.864 73.0517 240.822 72.8187 240.777 72.5631C240.74 72.3075 240.698 72.0332 240.653 71.74C240.616 71.4394 240.574 71.1199 240.529 70.7817C240.492 70.4359 240.454 70.0676 240.417 69.6767C240.386 69.9548 240.353 70.2442 240.315 70.5449C240.285 70.838 240.247 71.1387 240.202 71.4469C240.165 71.7475 240.12 72.052 240.067 72.3601C240.022 72.6608 239.973 72.954 239.92 73.2396L238.094 82.5752H235.241L231.893 66.0913H234.351L236.143 75.472C236.211 75.8403 236.275 76.2124 236.335 76.5882C236.395 76.9641 236.452 77.3399 236.504 77.7157C236.564 78.084 236.617 78.4373 236.662 78.7756C236.707 79.1063 236.745 79.4145 236.775 79.7001C236.82 79.3468 236.869 78.9823 236.921 78.6064C236.974 78.2306 237.03 77.8623 237.09 77.5015C237.151 77.1332 237.211 76.7799 237.271 76.4417C237.331 76.1034 237.387 75.7952 237.44 75.5171L239.334 66.0913H241.51L243.337 75.4946C243.397 75.7877 243.457 76.1034 243.517 76.4417C243.577 76.7724 243.634 77.1181 243.686 77.4789C243.739 77.8322 243.792 78.1968 243.844 78.5726C243.897 78.9409 243.946 79.3168 243.991 79.7001C244.043 79.2341 244.103 78.7568 244.171 78.2682C244.239 77.7796 244.31 77.2985 244.385 76.825C244.468 76.3439 244.547 75.8929 244.622 75.472L246.449 66.0913H248.929ZM258.817 76.2951C258.817 77.2271 258.731 78.0878 258.558 78.877C258.385 79.6663 258.118 80.354 257.757 80.9403C257.404 81.5266 256.942 81.9851 256.371 82.3159C255.807 82.6391 255.13 82.8007 254.341 82.8007C253.589 82.8007 252.935 82.6391 252.379 82.3159C251.823 81.9927 251.361 81.5417 250.992 80.9629C250.632 80.3766 250.361 79.6888 250.181 78.8996C250 78.1028 249.91 77.2347 249.91 76.2951C249.91 74.9797 250.064 73.8409 250.372 72.8788C250.688 71.9091 251.177 71.1612 251.838 70.6351C252.499 70.1014 253.345 69.8346 254.375 69.8346C255.299 69.8346 256.092 70.0826 256.754 70.5787C257.423 71.0748 257.934 71.8039 258.287 72.766C258.641 73.7206 258.817 74.897 258.817 76.2951ZM252.312 76.3176C252.312 77.2948 252.383 78.1141 252.526 78.7756C252.676 79.437 252.902 79.9369 253.202 80.2751C253.51 80.6058 253.901 80.7712 254.375 80.7712C254.848 80.7712 255.232 80.6058 255.525 80.2751C255.826 79.9444 256.044 79.4483 256.179 78.7868C256.322 78.1254 256.393 77.2948 256.393 76.2951C256.393 75.3179 256.322 74.5024 256.179 73.8484C256.044 73.187 255.826 72.6946 255.525 72.3714C255.232 72.0407 254.845 71.8753 254.364 71.8753C253.642 71.8753 253.12 72.2436 252.796 72.9803C252.473 73.7094 252.312 74.8218 252.312 76.3176ZM271.749 69.8346C272.772 69.8346 273.531 70.1991 274.027 70.9282C274.531 71.6498 274.782 72.7548 274.782 74.2431V82.5752H272.415V74.8406C272.415 73.8259 272.294 73.0893 272.054 72.6307C271.813 72.1722 271.456 71.943 270.983 71.943C270.314 71.943 269.84 72.2775 269.562 72.9464C269.284 73.6079 269.145 74.5926 269.145 75.9005V82.5752H266.777V74.8068C266.777 74.1303 266.725 73.5816 266.619 73.1607C266.514 72.7397 266.356 72.4316 266.146 72.2361C265.943 72.0407 265.684 71.943 265.368 71.943C264.872 71.943 264.488 72.1196 264.218 72.4729C263.955 72.8187 263.771 73.3148 263.665 73.9612C263.56 74.6001 263.508 75.3593 263.508 76.2387V82.5752H261.14V70.0713H263.023L263.282 71.7513H263.429C263.586 71.3454 263.797 70.9996 264.06 70.714C264.323 70.4284 264.635 70.2104 264.996 70.0601C265.364 69.9097 265.77 69.8346 266.214 69.8346C266.935 69.8346 267.506 70.0187 267.927 70.387C268.348 70.7478 268.638 71.2063 268.795 71.7626H268.965C269.25 71.1237 269.611 70.6426 270.047 70.3194C270.49 69.9962 271.058 69.8346 271.749 69.8346ZM281.311 69.8571C282.205 69.8571 282.953 70.0976 283.554 70.5787C284.156 71.0523 284.607 71.71 284.907 72.5518C285.208 73.3937 285.358 74.3596 285.358 75.4495V76.9039H279.405C279.42 78.2268 279.638 79.2153 280.059 79.8692C280.488 80.5156 281.138 80.8389 282.01 80.8389C282.498 80.8389 282.968 80.7712 283.419 80.6359C283.87 80.4931 284.347 80.2638 284.851 79.9481V81.9776C284.385 82.2557 283.893 82.4624 283.374 82.5977C282.855 82.733 282.299 82.8007 281.705 82.8007C280.608 82.8007 279.717 82.5339 279.033 82.0002C278.349 81.459 277.849 80.7073 277.534 79.7452C277.225 78.7831 277.071 77.6669 277.071 76.3966C277.071 74.991 277.229 73.8033 277.545 72.8337C277.86 71.864 278.334 71.1274 278.965 70.6238C279.597 70.1127 280.379 69.8571 281.311 69.8571ZM281.344 71.7513C280.766 71.7513 280.311 72.0219 279.98 72.5631C279.649 73.1043 279.465 73.9574 279.428 75.1225H283.16C283.16 74.4761 283.092 73.901 282.957 73.3974C282.821 72.8863 282.618 72.4842 282.348 72.191C282.085 71.8979 281.75 71.7513 281.344 71.7513ZM292.676 69.8346C293.698 69.8346 294.476 70.1991 295.01 70.9282C295.551 71.6573 295.821 72.7397 295.821 74.1754V82.5752H293.454V74.7842C293.454 73.8447 293.345 73.1381 293.127 72.6646C292.909 72.1835 292.533 71.943 291.999 71.943C291.278 71.943 290.759 72.2775 290.443 72.9464C290.135 73.6154 289.981 74.7241 289.981 76.2725V82.5752H287.613V70.0713H289.496L289.744 71.7738H289.902C290.082 71.368 290.308 71.0222 290.579 70.7366C290.849 70.4434 291.161 70.2217 291.514 70.0713C291.868 69.9135 292.255 69.8346 292.676 69.8346ZM301.267 66.0913L301.414 66.3394C301.286 67.0309 301.136 67.7036 300.963 68.3576C300.797 69.004 300.613 69.6316 300.41 70.2405C300.215 70.8493 299.997 71.4394 299.756 72.0106H297.862C297.975 71.5671 298.08 71.0861 298.178 70.5674C298.283 70.0413 298.381 69.5114 298.471 68.9777C298.561 68.4365 298.636 67.9178 298.696 67.4217C298.764 66.9256 298.817 66.4822 298.854 66.0913H301.267ZM309.622 79.0913C309.622 79.888 309.472 80.5645 309.171 81.1207C308.878 81.6694 308.449 82.0866 307.886 82.3722C307.329 82.6579 306.657 82.8007 305.867 82.8007C305.273 82.8007 304.721 82.7368 304.21 82.609C303.699 82.4812 303.236 82.3121 302.823 82.1016V79.7452C303.191 80.0158 303.631 80.2451 304.142 80.433C304.653 80.6209 305.172 80.7148 305.698 80.7148C306.202 80.7148 306.585 80.5833 306.848 80.3202C307.119 80.0571 307.254 79.6851 307.254 79.204C307.254 78.9184 307.198 78.6666 307.085 78.4486C306.98 78.2231 306.788 78.0013 306.51 77.7834C306.239 77.5579 305.852 77.3136 305.349 77.0505C304.838 76.7498 304.39 76.4229 304.007 76.0696C303.624 75.7163 303.327 75.3104 303.116 74.8519C302.913 74.3934 302.812 73.8559 302.812 73.2396C302.812 72.2023 303.143 71.3755 303.804 70.7591C304.465 70.1427 305.352 69.8346 306.465 69.8346C307.036 69.8346 307.574 69.9097 308.077 70.0601C308.581 70.2104 309.066 70.4321 309.532 70.7253L308.799 72.5856C308.461 72.3526 308.1 72.1647 307.716 72.0219C307.341 71.8716 306.957 71.7964 306.566 71.7964C306.108 71.7964 305.747 71.9204 305.484 72.1685C305.228 72.409 305.101 72.736 305.101 73.1494C305.101 73.4275 305.153 73.668 305.258 73.871C305.371 74.0739 305.567 74.2844 305.845 74.5024C306.13 74.7128 306.521 74.9684 307.017 75.2691C307.536 75.5848 307.987 75.9155 308.37 76.2613C308.761 76.5995 309.066 76.9941 309.284 77.4451C309.509 77.8961 309.622 78.4448 309.622 79.0913ZM323.073 82.5752L322.024 77.9412H318.236L317.187 82.5752H314.526L318.518 66.0913H321.652L325.711 82.5752H323.073ZM321.607 75.7313L320.536 70.7591C320.476 70.4359 320.419 70.124 320.367 69.8233C320.314 69.5151 320.265 69.2182 320.22 68.9326C320.175 68.6469 320.134 68.3726 320.096 68.1095C320.074 68.3651 320.04 68.6357 319.995 68.9213C319.957 69.2069 319.908 69.5001 319.848 69.8007C319.796 70.1014 319.735 70.4096 319.668 70.7253L318.619 75.7313H321.607ZM331.044 82.8007C330.059 82.8007 329.24 82.5639 328.586 82.0904C327.932 81.6168 327.444 80.9065 327.12 79.9594C326.797 79.0123 326.636 77.8247 326.636 76.3966C326.636 75.0736 326.793 73.9236 327.109 72.9464C327.432 71.9618 327.925 71.1988 328.586 70.6576C329.248 70.1089 330.086 69.8346 331.101 69.8346C331.642 69.8346 332.13 69.8947 332.566 70.015C333.002 70.1352 333.412 70.3081 333.795 70.5336L333.096 72.4503C332.788 72.2699 332.48 72.1384 332.172 72.0557C331.871 71.9655 331.57 71.9204 331.27 71.9204C330.789 71.9204 330.383 72.0895 330.052 72.4278C329.721 72.766 329.469 73.2659 329.297 73.9274C329.124 74.5813 329.037 75.4006 329.037 76.3853C329.037 77.3474 329.12 78.1517 329.285 78.7981C329.458 79.4445 329.71 79.9331 330.041 80.2638C330.379 80.5871 330.796 80.7487 331.292 80.7487C331.676 80.7487 332.059 80.6848 332.442 80.557C332.833 80.4292 333.22 80.2451 333.604 80.0045V82.0227C333.243 82.2858 332.833 82.4812 332.375 82.609C331.916 82.7368 331.473 82.8007 331.044 82.8007ZM339.534 69.8346C340.722 69.8346 341.597 70.2066 342.161 70.9508C342.725 71.6949 343.007 72.7848 343.007 74.2205V82.5752H341.248L340.876 80.8501H340.819C340.594 81.2711 340.342 81.6281 340.064 81.9213C339.786 82.2144 339.466 82.4324 339.106 82.5752C338.752 82.7255 338.339 82.8007 337.865 82.8007C337.196 82.8007 336.652 82.6241 336.231 82.2708C335.81 81.91 335.501 81.4402 335.306 80.8614C335.111 80.2826 335.013 79.6663 335.013 79.0123C335.013 77.742 335.37 76.7686 336.084 76.0921C336.806 75.4156 337.828 75.0473 339.151 74.9872L340.639 74.9083V74.2318C340.639 73.3899 340.519 72.7698 340.278 72.3714C340.038 71.973 339.643 71.7738 339.094 71.7738C338.741 71.7738 338.362 71.8415 337.956 71.9768C337.557 72.1046 337.118 72.3075 336.636 72.5856L335.949 70.8155C336.467 70.4923 337.027 70.248 337.629 70.0826C338.238 69.9172 338.873 69.8346 339.534 69.8346ZM340.65 76.5544L339.658 76.6108C338.899 76.6559 338.335 76.8701 337.967 77.2534C337.599 77.6368 337.414 78.193 337.414 78.9221C337.414 79.5911 337.531 80.0872 337.764 80.4104C338.005 80.7336 338.339 80.8952 338.767 80.8952C339.346 80.8952 339.805 80.6171 340.143 80.0609C340.481 79.4971 340.65 78.7305 340.65 77.7608V76.5544ZM348.971 82.8007C347.769 82.8007 346.855 82.2407 346.231 81.1207C345.608 79.9932 345.296 78.396 345.296 76.3289C345.296 74.2694 345.608 72.6721 346.231 71.5371C346.863 70.4021 347.75 69.8346 348.892 69.8346C349.283 69.8346 349.651 69.9097 349.997 70.0601C350.343 70.2029 350.655 70.4133 350.933 70.6915C351.219 70.9696 351.463 71.3116 351.666 71.7175H351.756C351.741 71.2965 351.726 70.932 351.711 70.6238C351.696 70.3081 351.688 70.03 351.688 69.7895V65.0315H354.045V82.5752H352.151L351.824 81.0418H351.688C351.463 81.4252 351.219 81.7484 350.956 82.0115C350.693 82.2745 350.399 82.47 350.076 82.5977C349.753 82.733 349.385 82.8007 348.971 82.8007ZM349.603 80.805C350.294 80.805 350.813 80.4781 351.159 79.8241C351.512 79.1627 351.688 78.1592 351.688 76.8137V76.0358C351.688 74.6226 351.519 73.5853 351.181 72.9239C350.85 72.2549 350.32 71.9204 349.591 71.9204C348.945 71.9204 348.468 72.2963 348.159 73.0479C347.851 73.7921 347.697 74.882 347.697 76.3176C347.697 77.8059 347.855 78.9259 348.171 79.6775C348.486 80.4292 348.964 80.805 349.603 80.805ZM360.618 69.8571C361.513 69.8571 362.261 70.0976 362.862 70.5787C363.463 71.0523 363.914 71.71 364.215 72.5518C364.516 73.3937 364.666 74.3596 364.666 75.4495V76.9039H358.713C358.728 78.2268 358.946 79.2153 359.367 79.8692C359.795 80.5156 360.445 80.8389 361.317 80.8389C361.806 80.8389 362.276 80.7712 362.727 80.6359C363.178 80.4931 363.655 80.2638 364.159 79.9481V81.9776C363.692 82.2557 363.2 82.4624 362.681 82.5977C362.163 82.733 361.607 82.8007 361.013 82.8007C359.915 82.8007 359.025 82.5339 358.341 82.0002C357.657 81.459 357.157 80.7073 356.841 79.7452C356.533 78.7831 356.379 77.6669 356.379 76.3966C356.379 74.991 356.537 73.8033 356.852 72.8337C357.168 71.864 357.642 71.1274 358.273 70.6238C358.904 70.1127 359.686 69.8571 360.618 69.8571ZM360.652 71.7513C360.073 71.7513 359.618 72.0219 359.288 72.5631C358.957 73.1043 358.773 73.9574 358.735 75.1225H362.467C362.467 74.4761 362.4 73.901 362.264 73.3974C362.129 72.8863 361.926 72.4842 361.655 72.191C361.392 71.8979 361.058 71.7513 360.652 71.7513ZM377.531 69.8346C378.553 69.8346 379.312 70.1991 379.808 70.9282C380.312 71.6498 380.563 72.7548 380.563 74.2431V82.5752H378.196V74.8406C378.196 73.8259 378.075 73.0893 377.835 72.6307C377.594 72.1722 377.237 71.943 376.764 71.943C376.095 71.943 375.621 72.2775 375.343 72.9464C375.065 73.6079 374.926 74.5926 374.926 75.9005V82.5752H372.558V74.8068C372.558 74.1303 372.506 73.5816 372.4 73.1607C372.295 72.7397 372.137 72.4316 371.927 72.2361C371.724 72.0407 371.465 71.943 371.149 71.943C370.653 71.943 370.269 72.1196 369.999 72.4729C369.736 72.8187 369.552 73.3148 369.446 73.9612C369.341 74.6001 369.289 75.3593 369.289 76.2387V82.5752H366.921V70.0713H368.804L369.063 71.7513H369.21C369.367 71.3454 369.578 70.9996 369.841 70.714C370.104 70.4284 370.416 70.2104 370.777 70.0601C371.145 69.9097 371.551 69.8346 371.995 69.8346C372.716 69.8346 373.287 70.0187 373.708 70.387C374.129 70.7478 374.419 71.2063 374.576 71.7626H374.746C375.031 71.1237 375.392 70.6426 375.828 70.3194C376.271 69.9962 376.839 69.8346 377.531 69.8346ZM382.029 70.0713H384.498L386.111 76.7461C386.178 77.0392 386.242 77.3324 386.302 77.6255C386.37 77.9187 386.426 78.2043 386.472 78.4824C386.524 78.7605 386.565 79.0349 386.596 79.3055H386.686C386.731 78.9296 386.795 78.535 386.877 78.1216C386.96 77.7007 387.062 77.2459 387.182 76.7574L388.726 70.0713H391.173L387.452 84.1762C387.204 85.1083 386.911 85.8637 386.573 86.4425C386.242 87.0213 385.848 87.4459 385.389 87.7165C384.938 87.9871 384.404 88.1224 383.788 88.1224C383.57 88.1224 383.356 88.1037 383.145 88.0661C382.942 88.0285 382.732 87.9834 382.514 87.9308V85.8336C382.664 85.8787 382.815 85.9163 382.965 85.9464C383.123 85.9765 383.273 85.9915 383.416 85.9915C383.709 85.9915 383.953 85.9238 384.149 85.7885C384.352 85.6608 384.528 85.4315 384.679 85.1008C384.837 84.77 384.994 84.304 385.152 83.7027L385.468 82.4624L382.029 70.0713Z" fill="white"/>
</svg>
